<svg width="15" height="14" viewBox="0 0 15 14" fill="none" xmlns="http://www.w3.org/2000/svg">
<g clip-path="url(#clip0_148_2468)">
<path d="M14.4666 10.8002L11.633 8.91052C11.2734 8.67264 10.7913 8.75091 10.5255 9.09039L9.70007 10.1517C9.594 10.2915 9.40117 10.3321 9.24771 10.2469L9.0907 10.1603C8.57021 9.8766 7.92258 9.5234 6.61774 8.21809C5.3129 6.91278 4.95899 6.26467 4.67528 5.74513L4.58919 5.58812C4.50277 5.43469 4.54258 5.24104 4.6825 5.13412L5.74306 4.30895C6.0824 4.04307 6.16079 3.56118 5.92318 3.20148L4.03346 0.367826C3.78994 0.00152881 3.30138 -0.108431 2.9244 0.118187L1.73947 0.829976C1.36715 1.04886 1.094 1.40334 0.97729 1.81915C0.5506 3.37385 0.871595 6.05702 4.82415 10.01C7.96832 13.154 10.309 13.9995 11.9178 13.9995C12.2881 14.001 12.6569 13.9529 13.0144 13.8562C13.4302 13.7396 13.7848 13.4665 14.0035 13.094L14.716 11.9098C14.943 11.5328 14.8331 11.0439 14.4666 10.8002ZM14.314 11.6704L13.6032 12.8554C13.4461 13.1242 13.1911 13.3218 12.8916 13.4069C11.4563 13.8009 8.94886 13.4746 5.15425 9.67994C1.35964 5.88533 1.03328 3.37806 1.42733 1.94259C1.51252 1.64273 1.7104 1.38741 1.97954 1.23009L3.16447 0.519233C3.32804 0.42081 3.54009 0.468518 3.64575 0.627471L4.67228 2.16864L5.53386 3.46087C5.63704 3.6169 5.60314 3.82602 5.45594 3.94148L4.39513 4.76665C4.07231 5.0135 3.98012 5.46014 4.17888 5.81463L4.26311 5.96768C4.56128 6.51453 4.93198 7.19482 6.28535 8.54797C7.63872 9.90109 8.31879 10.2718 8.86539 10.57L9.01866 10.6544C9.37312 10.8531 9.81979 10.761 10.0666 10.4382L10.8918 9.37735C11.0073 9.23023 11.2163 9.19636 11.3724 9.29943L14.2058 11.1891C14.3649 11.2947 14.4126 11.5069 14.314 11.6704Z" fill="#2A72AD" style="fill:#2A72AD;fill:color(display-p3 0.1647 0.4471 0.6784);fill-opacity:1;"/>
<path d="M8.76698 2.3345C10.9564 2.33693 12.7306 4.1112 12.7331 6.30059C12.7331 6.42944 12.8375 6.53388 12.9664 6.53388C13.0952 6.53388 13.1996 6.42944 13.1996 6.30059C13.1969 3.8536 11.214 1.8706 8.76698 1.86792C8.63813 1.86792 8.53369 1.97236 8.53369 2.10121C8.53369 2.23006 8.63813 2.3345 8.76698 2.3345Z" fill="#2A72AD" style="fill:#2A72AD;fill:color(display-p3 0.1647 0.4471 0.6784);fill-opacity:1;"/>
<path d="M8.76698 3.73416C10.1836 3.73582 11.3316 4.88382 11.3333 6.30045C11.3333 6.4293 11.4377 6.53374 11.5666 6.53374C11.6954 6.53374 11.7999 6.4293 11.7999 6.30045C11.7979 4.62622 10.4412 3.26949 8.76698 3.26758C8.63813 3.26758 8.53369 3.37202 8.53369 3.50087C8.53369 3.62972 8.63813 3.73416 8.76698 3.73416Z" fill="#2A72AD" style="fill:#2A72AD;fill:color(display-p3 0.1647 0.4471 0.6784);fill-opacity:1;"/>
<path d="M8.76698 5.13406C9.41089 5.13483 9.93269 5.65663 9.93348 6.30056C9.93348 6.42941 10.0379 6.53385 10.1668 6.53385C10.2956 6.53385 10.4001 6.42941 10.4001 6.30056C10.399 5.39906 9.66848 4.66849 8.76698 4.66748C8.63813 4.66748 8.53369 4.77192 8.53369 4.90077C8.53369 5.02962 8.63813 5.13406 8.76698 5.13406Z" fill="#2A72AD" style="fill:#2A72AD;fill:color(display-p3 0.1647 0.4471 0.6784);fill-opacity:1;"/>
</g>
<defs>
<clipPath id="clip0_148_2468">
<rect width="14" height="14" fill="white" style="fill:white;fill-opacity:1;" transform="translate(0.833984)"/>
</clipPath>
</defs>
</svg>
