<svg width="27" height="25" viewBox="0 0 27 25" fill="none" xmlns="http://www.w3.org/2000/svg">
<path d="M2.72941 16.3884C2.24315 13.2994 1.75689 10.2104 1.27063 7.12133C1.1628 6.43656 1.96001 5.96953 2.52709 6.38523C4.04206 7.4957 5.55695 8.60609 7.07192 9.71656C7.57073 10.0822 8.28137 9.9632 8.62718 9.45617L12.4109 3.90929C12.8107 3.32312 13.6919 3.32312 14.0918 3.90929L17.8754 9.45617C18.2213 9.9632 18.9319 10.0821 19.4307 9.71656C20.9457 8.60609 22.4606 7.4957 23.9755 6.38523C24.5426 5.96953 25.3398 6.43656 25.2321 7.12133C24.7458 10.2104 24.2596 13.2994 23.7733 16.3884H2.72941Z" fill="#FE9F45" style="fill:#FE9F45;fill:color(display-p3 0.9961 0.6235 0.2706);fill-opacity:1;"/>
<path d="M22.6762 21.53H3.82663C3.22071 21.53 2.72949 21.0499 2.72949 20.4577V18.1022H23.7734V20.4577C23.7733 21.0499 23.2821 21.53 22.6762 21.53Z" fill="#FE9F45" style="fill:#FE9F45;fill:color(display-p3 0.9961 0.6235 0.2706);fill-opacity:1;"/>
</svg>
