<svg width="291" height="173" viewBox="0 0 291 173" fill="none" xmlns="http://www.w3.org/2000/svg">
<path d="M51.8293 89.7333C48.848 88.6631 45.752 87.9751 42.5413 87.6693C39.4836 87.2871 36.3493 86.9431 33.1387 86.6373C36.0436 87.096 39.0249 87.5164 42.0827 87.8987C45.2933 88.2809 48.3129 89.1218 51.1413 90.4213C50.8356 90.7271 50.5298 90.9947 50.224 91.224C49.9182 91.4533 49.6124 91.568 49.3067 91.568C48.2364 91.568 47.2044 91.4533 46.2107 91.224C45.2169 90.9182 44.1467 90.7653 43 90.7653V89.3893C42.6178 89.4658 42.0827 89.504 41.3947 89.504C39.4836 89.504 37.6107 89.2364 35.776 88.7013C33.9413 88.1662 32.0684 87.8987 30.1573 87.8987C29.1636 87.8987 28.208 88.0133 27.2907 88.2427V88.7013C29.7369 88.8542 32.2213 89.1218 34.744 89.504C37.3431 89.8098 39.9804 90.2302 42.656 90.7653C40.2098 90.3831 37.5724 90.0391 34.744 89.7333C31.992 89.4276 29.3929 89.2747 26.9467 89.2747C25.9529 89.2747 24.9973 89.3129 24.08 89.3893C23.2391 89.3893 22.3982 89.4276 21.5573 89.504C21.5573 91.1093 21.5956 92.9822 21.672 95.1227C21.7484 97.2631 21.9013 99.3653 22.1307 101.429C22.36 103.417 22.6276 105.175 22.9333 106.704C23.2391 108.233 23.6213 109.227 24.08 109.685L25.112 111.749C26.0293 114.578 29.0871 115.992 34.2853 115.992C35.432 115.992 36.808 115.839 38.4133 115.533C40.0187 115.228 41.624 114.884 43.2293 114.501C44.9111 114.043 46.4782 113.66 47.9307 113.355C49.4596 113.049 50.7591 112.896 51.8293 112.896C52.8996 112.896 53.5111 113.049 53.664 113.355C53.8169 113.66 53.8933 114.081 53.8933 114.616C50.6827 114.998 47.5867 115.572 44.6053 116.336C42.0062 117.024 39.4836 117.559 37.0373 117.941C39.4836 117.559 41.968 117.1 44.4907 116.565C47.472 115.877 50.4916 115.342 53.5493 114.96C53.3964 115.419 53.32 115.724 53.32 115.877C53.32 116.336 53.5111 116.718 53.8933 117.024L55.4987 116.795C55.9573 116.718 56.416 116.68 56.8747 116.68C57.3333 116.604 57.7538 116.489 58.136 116.336C59.512 116.718 60.4676 117.139 61.0027 117.597C61.6142 118.056 61.92 118.553 61.92 119.088C61.92 120.082 61.4231 120.77 60.4293 121.152C59.512 121.534 58.6329 122.146 57.792 122.987H57.3333C55.1164 122.987 52.976 123.178 50.912 123.56C48.848 123.866 46.784 124.21 44.72 124.592C42.7324 124.974 40.6684 125.356 38.528 125.739C36.464 126.044 34.3236 126.197 32.1067 126.197H30.5013H29.8133C31.2658 126.35 32.8329 126.427 34.5147 126.427C36.6551 126.427 38.6427 126.312 40.4773 126.083C42.3884 125.853 44.2231 125.586 45.9813 125.28C47.7396 124.974 49.4213 124.707 51.0267 124.477C52.7084 124.248 54.3902 124.133 56.072 124.133C54.8489 124.745 53.3582 125.356 51.6 125.968C49.8418 126.503 47.8924 126.962 45.752 127.344C43.6116 127.803 41.3947 128.147 39.1013 128.376C36.808 128.682 34.5529 128.835 32.336 128.835C30.8071 128.835 29.3164 128.758 27.864 128.605C26.4116 128.452 24.8444 127.956 23.1627 127.115L23.048 125.853C21.9778 125.471 20.8311 124.783 19.608 123.789C18.4613 122.719 17.3911 121.611 16.3973 120.464C15.4036 119.317 14.5627 118.247 13.8747 117.253C13.1867 116.26 12.8427 115.61 12.8427 115.304L12.4987 114.272C11.8107 112.82 11.2373 111.214 10.7787 109.456C10.3964 107.698 10.0907 105.94 9.86133 104.181C9.632 102.347 9.44089 100.55 9.288 98.792C9.13511 97.0338 9.02044 95.3902 8.944 93.8613C8.79111 91.3387 8.67644 88.816 8.6 86.2933C8.52356 83.6942 8.48533 81.0951 8.48533 78.496C8.48533 75.8969 8.48533 73.2978 8.48533 70.6987C8.56178 68.0231 8.6 65.3476 8.6 62.672H8.256C7.87378 65.5769 7.64444 68.3671 7.568 71.0427C7.568 73.7182 7.568 76.3938 7.568 79.0693V83.5413C7.568 88.8924 7.83556 94.4729 8.37067 100.283C8.98222 106.092 10.4729 111.749 12.8427 117.253C11.0844 114.272 9.976 111.329 9.51733 108.424C9.05867 105.443 8.63822 102.691 8.256 100.168C7.79733 96.8809 7.45333 93.7084 7.224 90.6507C7.07111 87.5929 6.99467 84.4587 6.99467 81.248V78.84C6.99467 74.4062 7.10933 69.896 7.33867 65.3093C7.568 60.7227 8.256 55.8684 9.40267 50.7467C8.944 50.7467 8.71467 50.5173 8.71467 50.0587C8.71467 49.6 8.944 48.9502 9.40267 48.1093C9.93778 47.2684 10.5876 46.4658 11.352 45.7013C12.1164 44.8604 12.9573 44.1724 13.8747 43.6373C14.8684 43.0258 15.824 42.72 16.7413 42.72H44.032C46.8604 43.2551 49.6124 43.7138 52.288 44.096C55.04 44.4018 57.9067 44.6311 60.888 44.784L60.7733 47.4213C60.7733 47.88 60.544 48.2622 60.0853 48.568C59.7031 48.7973 58.7858 48.912 57.3333 48.912C56.8747 48.912 56.3013 48.912 55.6133 48.912C55.0018 48.8356 54.3138 48.7591 53.5493 48.6827V49.7147C56.6836 50.4027 59.1298 51.2436 60.888 52.2373C62.7227 53.2311 63.64 54.1867 63.64 55.104C63.64 56.1742 62.608 56.824 60.544 57.0533C58.5564 57.2827 55.8809 57.3973 52.5173 57.3973C48.2364 57.3973 43.6498 57.3973 38.7573 57.3973C33.9413 57.3209 29.2782 57.0916 24.768 56.7093H22.8187C22.4364 59.6142 22.1689 62.5956 22.016 65.6533C21.8631 68.7111 21.7484 71.8453 21.672 75.056C22.8951 75.056 24.08 75.0178 25.2267 74.9413C26.4498 74.7884 27.7111 74.712 29.0107 74.712C30.0809 74.712 31.304 74.8267 32.68 75.056C34.1324 75.2089 35.6231 75.4382 37.152 75.744C38.7573 76.0498 40.3244 76.432 41.8533 76.8907C43.4587 77.2729 44.9111 77.6933 46.2107 78.152C46.44 78.2284 46.7076 78.2667 47.0133 78.2667H48.9627C49.9564 78.2667 50.6062 78.4196 50.912 78.7253C51.2942 79.0311 51.4853 79.6427 51.4853 80.56C50.1858 80.56 48.9627 80.4836 47.816 80.3307C46.6693 80.1778 45.5609 80.0249 44.4907 79.872C45.5609 80.2542 46.6693 80.56 47.816 80.7893C48.9627 80.9422 50.1858 81.0951 51.4853 81.248C51.3324 81.6302 51.2178 81.9742 51.1413 82.28C51.1413 82.5858 51.1413 82.8533 51.1413 83.0827C51.9058 83.2356 52.4027 83.6178 52.632 84.2293C52.9378 84.7644 53.0907 85.376 53.0907 86.064C53.0907 87.0578 52.8613 87.8604 52.4027 88.472C52.0204 89.0071 51.8293 89.4276 51.8293 89.7333ZM11.4667 102.691C11.7724 104.525 12.1164 106.513 12.4987 108.653C12.9573 110.717 13.6071 112.781 14.448 114.845C15.3653 116.833 16.5884 118.706 18.1173 120.464C19.3404 121.916 20.9458 123.14 22.9333 124.133C20.64 122.91 18.7671 121.228 17.3147 119.088C15.6329 116.489 14.2951 113.584 13.3013 110.373C12.384 107.163 11.696 103.761 11.2373 100.168C10.8551 96.5751 10.5493 93.1351 10.32 89.848C10.3964 91.912 10.5111 94.0142 10.664 96.1547C10.8169 98.2951 11.0844 100.474 11.4667 102.691ZM39.56 79.2987C40.8596 79.528 42.2356 79.7191 43.688 79.872C42.312 79.4898 41.0124 79.2222 39.7893 79.0693C38.5662 78.84 37.3431 78.5724 36.12 78.2667C37.1138 78.7253 38.2604 79.0693 39.56 79.2987ZM20.7547 126.312C19.7609 125.853 18.8818 125.318 18.1173 124.707C17.5822 124.248 17.0853 123.789 16.6267 123.331C17.0853 123.789 17.6204 124.21 18.232 124.592C19.0729 125.204 19.9138 125.777 20.7547 126.312ZM24.1947 124.707L23.1627 124.248L24.1947 124.707ZM214.413 86.408C212.884 87.784 211.05 89.1218 208.909 90.4213C206.769 91.7209 204.552 92.944 202.259 94.0907C199.965 95.1609 197.71 96.1164 195.493 96.9573C193.276 97.7218 191.289 98.3333 189.531 98.792C187.772 99.3271 186.167 99.8622 184.715 100.397C183.262 100.856 181.886 101.391 180.587 102.003C179.287 102.614 177.987 103.302 176.688 104.067C175.388 104.831 174.051 105.748 172.675 106.819C171.681 107.583 170.84 108.195 170.152 108.653C169.54 109.112 169.005 109.494 168.547 109.8C168.164 110.106 167.82 110.335 167.515 110.488C167.285 110.641 167.056 110.794 166.827 110.947L170.955 111.291C174.165 111.596 177.261 111.94 180.243 112.323C183.224 112.628 186.243 112.972 189.301 113.355C190.601 113.508 191.365 113.622 191.595 113.699C191.824 113.699 192.053 113.699 192.283 113.699C198.551 114.081 202.947 114.387 205.469 114.616C207.992 114.769 209.253 115.304 209.253 116.221C209.253 116.527 209.215 116.718 209.139 116.795C206.004 116.642 202.947 116.374 199.965 115.992C197.06 115.533 193.62 115.228 189.645 115.075C188.116 114.845 186.32 114.654 184.256 114.501C182.268 114.272 180.166 114.119 177.949 114.043C175.809 113.89 173.63 113.775 171.413 113.699C169.273 113.622 167.247 113.584 165.336 113.584C163.578 113.584 162.011 113.622 160.635 113.699C159.259 113.699 158.15 113.775 157.309 113.928C159.373 113.928 161.819 113.966 164.648 114.043C167.476 114.119 170.381 114.234 173.363 114.387C176.344 114.463 179.249 114.616 182.077 114.845C184.982 114.998 187.467 115.228 189.531 115.533L193.544 116.107C196.219 116.489 198.704 116.718 200.997 116.795C203.367 116.871 205.928 117.062 208.68 117.368C208.298 117.75 208.107 118.132 208.107 118.515C208.107 119.203 208.565 119.508 209.483 119.432C210.476 119.356 211.852 119.432 213.611 119.661C215.139 120.273 216.21 120.846 216.821 121.381C217.509 121.84 217.853 122.299 217.853 122.757C217.853 123.216 217.547 123.675 216.936 124.133C216.324 124.516 215.56 124.821 214.643 125.051L211.776 125.853C208.642 125.318 205.622 124.974 202.717 124.821C199.889 124.592 196.755 124.286 193.315 123.904L190.333 123.56C187.887 123.254 185.479 122.987 183.109 122.757C180.739 122.528 178.293 122.299 175.771 122.069L163.616 121.152C162.775 121.076 161.858 121.037 160.864 121.037C159.87 120.961 158.838 120.923 157.768 120.923H155.704C155.016 120.923 154.29 120.961 153.525 121.037L151.461 121.152V112.323C151.461 109.953 152.035 108.118 153.181 106.819C154.328 105.443 155.589 104.411 156.965 103.723C157.653 103.34 158.341 103.035 159.029 102.805C158.876 102.805 158.723 102.844 158.571 102.92C157.424 103.302 156.277 103.876 155.131 104.64C154.06 105.328 153.105 106.284 152.264 107.507C151.499 108.73 151.117 110.335 151.117 112.323L151.003 121.381H162.125L169.12 121.725C172.713 121.955 176.191 122.26 179.555 122.643C182.995 123.025 186.396 123.445 189.76 123.904L193.429 124.477C196.334 124.783 199.048 125.089 201.571 125.395C204.093 125.7 206.692 126.044 209.368 126.427C208.298 126.656 207.113 126.847 205.813 127C204.59 127.229 203.214 127.344 201.685 127.344C200.233 127.344 198.933 127.268 197.787 127.115C196.64 126.962 195.302 126.809 193.773 126.656L190.104 126.197C187.428 125.815 184.867 125.509 182.421 125.28C179.975 124.974 177.338 124.668 174.509 124.363L173.821 123.101H164.533C164.151 123.101 163.731 123.14 163.272 123.216C162.813 123.216 162.278 123.216 161.667 123.216H158.8C157.806 123.216 156.812 123.216 155.819 123.216C154.825 123.14 153.755 123.025 152.608 122.872L149.397 122.413V112.437C149.397 109.915 149.932 107.889 151.003 106.36C152.149 104.755 153.449 103.493 154.901 102.576C156.354 101.659 157.806 100.932 159.259 100.397C160.711 99.8622 161.819 99.3653 162.584 98.9067L165.221 96.8427C168.279 94.5493 171.49 92.5236 174.853 90.7653C178.217 89.0071 181.733 87.6311 185.403 86.6373L187.123 86.1787C188.804 85.3378 190.601 84.6116 192.512 84C194.423 83.3884 196.219 82.624 197.901 81.7067L197.557 81.1333C195.646 81.9742 193.697 82.7004 191.709 83.312C189.798 83.9236 188.155 84.5733 186.779 85.2613L185.059 85.72C181.236 86.7902 177.567 88.2427 174.051 90.0773C170.611 91.912 167.476 93.9378 164.648 96.1547L162.355 98.104H161.896C161.667 98.104 161.361 98.1804 160.979 98.3333L162.125 97.76C166.253 94.2436 170.267 91.5298 174.165 89.6187C178.14 87.6311 182.077 86.064 185.976 84.9173C188.881 83.8471 191.251 83.0444 193.085 82.5093C194.92 81.8978 196.64 81.1716 198.245 80.3307C195.264 79.6427 192.627 79.184 190.333 78.9547C188.04 78.6489 185.899 78.496 183.912 78.496C182.918 78.496 181.963 78.5342 181.045 78.6107C180.128 78.6107 179.211 78.6489 178.293 78.7253C177.758 78.6489 177.223 78.6107 176.688 78.6107H175.197C172.522 78.6107 169.923 78.8782 167.4 79.4133C164.954 79.9484 162.622 80.6747 160.405 81.592C160.405 81.0569 160.176 80.6364 159.717 80.3307C159.335 79.9484 159.144 79.4898 159.144 78.9547C159.144 78.496 159.641 77.9227 160.635 77.2347C161.705 76.5467 163.654 75.8969 166.483 75.2853L166.253 74.1387C163.654 74.5209 161.399 74.8649 159.488 75.1707C157.577 75.4764 155.971 75.6293 154.672 75.6293C153.831 75.6293 153.181 75.5911 152.723 75.5147C152.34 75.4382 152.073 75.1707 151.92 74.712C151.92 74.5591 151.958 74.4062 152.035 74.2533C152.111 74.1004 152.149 73.9476 152.149 73.7947C153.678 72.2658 155.551 70.928 157.768 69.7813C159.985 68.5582 162.431 67.5644 165.107 66.8C167.859 65.9591 170.763 65.3476 173.821 64.9653C176.879 64.5067 180.013 64.2773 183.224 64.2773C185.594 64.2773 188.231 64.4684 191.136 64.8507C194.117 65.2329 197.404 65.7298 200.997 66.3413C201.762 66.5707 202.45 66.8 203.061 67.0293C203.673 67.1822 204.323 67.3733 205.011 67.6027C205.699 67.832 206.463 68.0996 207.304 68.4053C208.145 68.7111 209.177 69.0933 210.4 69.552C210.323 69.4756 210.82 69.6667 211.891 70.1253C213.037 70.584 214.184 71.4249 215.331 72.648L214.413 86.408ZM148.48 112.437C148.48 110.679 148.671 109.227 149.053 108.08C149.512 106.933 150.123 105.94 150.888 105.099C150.276 106.016 149.741 107.048 149.283 108.195C148.9 109.341 148.709 110.603 148.709 111.979V122.757L152.264 123.445C153.334 123.675 154.404 123.828 155.475 123.904C156.545 123.98 157.577 124.019 158.571 124.019C159.641 124.019 160.596 124.019 161.437 124.019C162.278 123.942 163.119 123.904 163.96 123.904L172.789 124.019L164.075 124.133H162.813C162.125 124.133 161.361 124.172 160.52 124.248C159.755 124.248 158.915 124.248 157.997 124.248C157.156 124.248 156.239 124.21 155.245 124.133C154.251 124.057 153.219 123.904 152.149 123.675L148.48 122.987V112.437ZM160.061 98.9067L157.653 100.512C156.736 101.124 155.627 101.735 154.328 102.347C153.105 102.958 151.958 103.876 150.888 105.099C152.34 102.958 154.099 101.391 156.163 100.397C158.227 99.3271 159.832 98.6391 160.979 98.3333L160.061 98.9067ZM165.451 108.539C164.38 108.539 163.425 108.959 162.584 109.8C161.819 110.564 161.208 111.1 160.749 111.405L160.979 111.52C161.361 111.291 162.087 110.87 163.157 110.259C164.227 109.647 165.374 108.997 166.597 108.309C167.82 107.621 169.005 106.972 170.152 106.36C171.299 105.672 172.178 105.137 172.789 104.755C172.407 104.984 171.834 105.29 171.069 105.672C170.381 105.978 169.655 106.322 168.891 106.704C168.126 107.086 167.4 107.468 166.712 107.851C166.1 108.156 165.68 108.386 165.451 108.539ZM161.093 102.003C162.393 101.544 163.234 100.971 163.616 100.283L164.304 99.824C165.68 98.7538 167.094 97.6453 168.547 96.4987C170.075 95.2756 171.643 94.1671 173.248 93.1733C171.107 94.2436 169.158 95.5813 167.4 97.1867C165.642 98.7156 163.654 100.168 161.437 101.544C161.055 101.773 160.635 102.003 160.176 102.232C160.482 102.156 160.787 102.079 161.093 102.003Z" fill="#2A72AD" style="fill:#2A72AD;fill:color(display-p3 0.1647 0.4471 0.6784);fill-opacity:1;"/>
<path d="M111.937 96.9573C109.873 96.9573 108.306 96.9191 107.236 96.8427C106.242 96.7662 105.325 96.728 104.484 96.728C102.19 96.728 100.165 96.8427 98.4064 97.072C96.6482 97.3013 95.1575 97.76 93.9344 98.448C92.7113 99.136 91.7939 100.13 91.1824 101.429C90.5708 102.729 90.2651 104.449 90.2651 106.589C90.2651 109.724 90.6091 112.055 91.2971 113.584C92.0615 115.036 93.0935 116.107 94.3931 116.795C95.7691 117.406 97.4126 117.788 99.3237 117.941C101.235 118.094 103.375 118.438 105.745 118.973C107.121 119.126 108.497 119.241 109.873 119.317C111.249 119.317 112.625 119.317 114.001 119.317H122.257C118.435 119.088 114.613 118.973 110.79 118.973C107.045 118.897 103.643 118.553 100.585 117.941C97.6037 117.33 95.1575 116.26 93.2464 114.731C91.4117 113.202 90.4944 110.87 90.4944 107.736C90.4944 105.213 90.8002 103.302 91.4117 102.003C92.0997 100.627 92.9788 99.6329 94.0491 99.0213C95.1957 98.3333 96.5335 97.9511 98.0624 97.8747C99.5913 97.7218 101.235 97.6453 102.993 97.6453C105.134 97.6453 107.312 97.76 109.529 97.9893C107.771 98.5244 105.974 98.9449 104.14 99.2507C102.382 99.48 100.738 99.7476 99.2091 100.053C97.6802 100.283 96.3424 100.627 95.1957 101.085C94.1255 101.468 93.3993 102.041 93.0171 102.805V107.965L92.0997 108.424C92.4055 110.335 92.6731 111.788 92.9024 112.781C93.2082 113.699 93.9726 114.425 95.1957 114.96C96.4188 115.419 98.3682 115.801 101.044 116.107C103.796 116.412 107.771 116.909 112.969 117.597H121.225C122.678 117.597 123.518 117.559 123.748 117.483C124.054 117.33 124.245 117.253 124.321 117.253L123.289 111.061C123.136 109.532 122.945 108.156 122.716 106.933C122.486 105.71 122.181 104.411 121.798 103.035C121.722 103.264 121.493 103.379 121.11 103.379C121.493 104.678 121.798 106.054 122.028 107.507C122.334 108.959 122.563 110.335 122.716 111.635C122.945 112.934 123.098 114.043 123.174 114.96C123.327 115.877 123.48 116.412 123.633 116.565L122.945 116.795C122.792 116.871 122.563 116.909 122.257 116.909H121.569C121.034 116.909 120.422 116.871 119.734 116.795C119.046 116.642 118.167 116.565 117.097 116.565H113.313C110.332 116.565 107.58 116.412 105.057 116.107C102.687 115.801 100.623 115.419 98.8651 114.96C100.623 115.342 102.764 115.648 105.286 115.877C107.962 116.183 110.446 116.336 112.74 116.336C113.734 116.336 114.766 116.336 115.836 116.336C116.982 116.26 118.206 116.221 119.505 116.221H123.289C123.06 115.992 122.792 115.877 122.486 115.877H122.257C121.951 110.603 121.263 105.557 120.193 100.741C119.123 95.9253 117.403 91.7209 115.033 88.128C112.663 84.4587 109.567 81.5538 105.745 79.4133C101.923 77.1964 97.1451 76.088 91.4117 76.088C89.8064 76.088 88.2011 76.2027 86.5957 76.432C84.9904 76.6613 83.3468 76.9671 81.6651 77.3493C81.8179 77.1964 81.8944 77.0436 81.8944 76.8907C81.8944 76.5084 81.7415 76.1644 81.4357 75.8587C81.1299 75.4764 80.9771 75.0942 80.9771 74.712C80.9771 74.2533 81.4357 73.8329 82.3531 73.4507C83.3468 72.992 85.4108 72.5716 88.5451 72.1893C88.3922 72.0364 88.2775 71.8071 88.2011 71.5013C88.2011 71.1956 88.2011 70.9662 88.2011 70.8133C84.0731 70.8133 80.8624 70.7369 78.5691 70.584C76.2757 70.3547 75.1291 69.7813 75.1291 68.864C75.1291 68.4818 75.5877 67.9467 76.5051 67.2587C77.4988 66.5707 78.8748 65.9209 80.6331 65.3093C82.3913 64.6213 84.4935 64.048 86.9397 63.5893C89.4624 63.0542 92.2526 62.7867 95.3104 62.7867C101.197 62.7867 106.242 63.704 110.446 65.5387C114.651 67.2969 118.167 69.6667 120.996 72.648C123.901 75.5529 126.232 78.8782 127.99 82.624C129.825 86.3698 131.278 90.1538 132.348 93.976C133.494 97.7218 134.335 101.391 134.87 104.984C135.406 108.5 135.902 111.558 136.361 114.157C136.361 114.616 136.361 115.075 136.361 115.533C136.438 115.992 136.476 116.527 136.476 117.139C136.476 119.356 136.055 121.305 135.214 122.987C134.45 124.592 133.342 125.93 131.889 127C130.513 128.147 128.87 128.988 126.958 129.523C125.124 130.134 123.136 130.44 120.996 130.44C119.314 130.44 117.135 130.402 114.46 130.325C111.784 130.249 109.223 130.02 106.777 129.637C105.172 129.255 103.414 128.949 101.502 128.72C99.5913 128.567 97.642 128.261 95.6544 127.803C93.6668 127.344 91.7175 126.694 89.8064 125.853C87.9717 125.012 86.2899 123.751 84.7611 122.069C83.3086 120.311 82.1237 118.056 81.2064 115.304C80.3655 112.552 79.9451 109.074 79.9451 104.869C79.9451 100.894 80.8624 97.7218 82.6971 95.352C84.5317 92.9058 86.7104 91.0329 89.2331 89.7333C91.8322 88.3573 94.4695 87.4782 97.1451 87.096C99.8206 86.6373 101.999 86.408 103.681 86.408C105.822 86.408 107.236 86.5609 107.924 86.8667C108.612 87.1724 108.956 87.4782 108.956 87.784C108.956 88.0133 108.918 88.2044 108.841 88.3573C106.93 88.3573 104.484 88.4338 101.502 88.5867C98.5211 88.7396 95.6162 89.2364 92.7877 90.0773C90.0357 90.9182 87.6659 92.2178 85.6784 93.976C83.6908 95.6578 82.6971 98.0658 82.6971 101.2C83.3851 98.3716 84.5317 96.1547 86.1371 94.5493C87.8188 92.8676 89.7299 91.6444 91.8704 90.88C94.0108 90.0391 96.1895 89.5422 98.4064 89.3893C100.7 89.16 102.764 89.0453 104.598 89.0453H108.497C108.191 89.3511 108.038 89.6569 108.038 89.9627C108.038 90.2684 108.191 90.536 108.497 90.7653H112.969C114.192 90.9947 115.071 91.4151 115.606 92.0267C116.142 92.5618 116.409 93.0587 116.409 93.5173C116.409 94.2053 116.065 94.8169 115.377 95.352C114.689 95.8871 113.542 96.4222 111.937 96.9573ZM92.6731 124.707C94.8135 125.548 96.9922 126.197 99.2091 126.656C101.502 127.115 103.758 127.42 105.974 127.573C108.191 127.803 110.255 127.917 112.166 127.917C110.638 127.764 109.109 127.497 107.58 127.115C105.974 126.732 104.56 126.388 103.337 126.083C102.038 125.777 100.738 125.586 99.4384 125.509C98.2153 125.356 96.9157 125.165 95.5397 124.936C94.2402 124.707 92.9024 124.363 91.5264 123.904C90.1504 123.369 88.7744 122.604 87.3984 121.611C88.8508 122.91 90.6091 123.942 92.6731 124.707ZM93.8197 112.667C93.7433 112.59 93.9726 112.82 94.5077 113.355C94.9664 113.813 95.578 114.157 96.3424 114.387C95.9602 114.234 95.3868 114.043 94.6224 113.813C93.7815 113.508 93.3611 113.049 93.3611 112.437L93.8197 112.667ZM96.6864 114.387C96.6099 114.387 96.4953 114.387 96.3424 114.387C96.4188 114.387 96.5335 114.387 96.6864 114.387Z" fill="white" style="fill:white;fill-opacity:1;"/>
<path d="M227.207 157.845C227.818 158.457 228.85 158.916 230.303 159.221C231.832 159.604 233.284 159.795 234.66 159.795C237.183 159.795 239.591 158.954 241.884 157.272C244.177 155.667 246.356 153.45 248.42 150.621C250.56 147.793 252.586 144.544 254.497 140.875C256.408 137.205 258.243 133.345 260.001 129.293H259.887C258.358 132.657 256.714 136.097 254.956 139.613C253.198 143.206 251.287 146.455 249.223 149.36C247.159 152.341 244.904 154.749 242.457 156.584C240.088 158.495 237.527 159.451 234.775 159.451C232.558 159.451 230.379 158.801 228.239 157.501C229.385 157.119 230.456 156.928 231.449 156.928C231.755 156.928 232.29 157.004 233.055 157.157C234.278 157.157 235.31 157.119 236.151 157.043C236.992 156.966 237.794 156.775 238.559 156.469C239.323 156.24 240.049 155.82 240.737 155.208C241.425 154.673 242.19 153.947 243.031 153.029L244.407 153.373C246.624 150.468 248.688 147.334 250.599 143.971C252.586 140.607 254.536 137.205 256.447 133.765L258.511 129.179L257.479 128.949L255.759 133.077C254 136.517 252.166 139.881 250.255 143.168C248.344 146.532 246.165 149.589 243.719 152.341C246.394 149.054 248.84 145.385 251.057 141.333C253.274 137.282 255.3 133.077 257.135 128.72L256.447 127.573C256.064 125.815 255.491 124.095 254.727 122.413C254.192 121.114 253.58 119.776 252.892 118.4C254.268 121.687 255.224 124.86 255.759 127.917C254.994 127.688 254.344 127.229 253.809 126.541C253.351 125.777 252.892 124.898 252.433 123.904C252.051 122.91 251.669 121.878 251.287 120.808C250.981 119.738 250.56 118.668 250.025 117.597L250.599 116.565C249.376 114.654 248.038 112.284 246.585 109.456C245.209 106.628 243.719 103.723 242.113 100.741C240.584 97.76 239.017 94.8551 237.412 92.0267C235.807 89.1982 234.24 86.8284 232.711 84.9173L232.367 85.2613L246.7 111.061C243.795 106.169 240.699 101.2 237.412 96.1547C234.125 91.1093 231.182 85.5289 228.583 79.4133C228.583 78.8782 228.506 78.1902 228.353 77.3493C228.2 76.432 228.009 75.5147 227.78 74.5973C227.627 73.6036 227.436 72.648 227.207 71.7307C226.977 70.7369 226.748 69.8578 226.519 69.0933L229.5 68.176C229.882 68.176 230.226 68.3671 230.532 68.7493C230.838 69.0551 231.105 69.7431 231.335 70.8133C231.717 70.8133 232.061 70.5076 232.367 69.896C232.672 69.2844 232.978 68.5964 233.284 67.832C233.666 67.0676 234.048 66.3796 234.431 65.768C234.889 65.1564 235.463 64.8507 236.151 64.8507C237.144 64.8507 238.024 65.5387 238.788 66.9147C239.629 68.2142 240.393 69.8196 241.081 71.7307C241.846 73.6418 242.648 75.6676 243.489 77.808C244.33 79.872 245.324 81.6684 246.471 83.1973C247.694 85.2613 248.917 87.2871 250.14 89.2747C251.44 91.2622 252.624 93.3644 253.695 95.5813C254.841 98.6391 256.332 101.735 258.167 104.869C260.001 107.927 261.454 111.138 262.524 114.501C264.359 108.386 265.811 102.958 266.881 98.2187C268.028 93.4027 268.907 88.6249 269.519 83.8853C270.36 81.4391 271.086 78.6871 271.697 75.6293C272.309 72.5716 272.615 69.5902 272.615 66.6853L275.137 66.8C275.52 66.8 275.864 66.9911 276.169 67.3733C276.475 67.6791 276.628 68.4818 276.628 69.7813C276.628 70.1636 276.59 70.584 276.513 71.0427C276.513 71.4249 276.475 71.9218 276.399 72.5333H277.431C278.119 70.0107 278.921 67.9849 279.839 66.456C280.756 64.9271 281.635 64.1627 282.476 64.1627C283.088 64.1627 283.661 64.8124 284.196 66.112C284.808 67.4116 285.113 69.5902 285.113 72.648C285.113 77.7698 284.502 83.312 283.279 89.2747C282.056 95.2373 280.794 101.124 279.495 106.933C277.354 114.731 274.832 122.222 271.927 129.408C269.022 136.594 265.352 143.894 260.919 151.309C259.543 153.373 257.976 155.514 256.217 157.731C254.536 160.024 252.548 162.088 250.255 163.923C248.038 165.757 245.477 167.248 242.572 168.395C239.744 169.618 236.495 170.229 232.825 170.229C230.15 170.229 228.315 169.885 227.321 169.197C226.404 168.509 225.945 167.974 225.945 167.592C225.945 167.363 226.022 167.095 226.175 166.789C228.468 167.554 230.914 167.936 233.513 167.936C235.348 167.936 237.45 167.592 239.82 166.904C242.266 166.292 244.445 165.337 246.356 164.037C244.598 164.955 242.61 165.757 240.393 166.445C238.253 167.133 236.304 167.477 234.545 167.477C231.793 167.477 229.118 167.133 226.519 166.445C226.519 165.91 226.289 165.413 225.831 164.955C225.448 164.496 224.99 164.037 224.455 163.579C223.92 163.196 223.423 162.776 222.964 162.317C222.582 161.859 222.391 161.324 222.391 160.712C222.391 160.1 222.582 159.642 222.964 159.336C223.346 159.03 223.767 158.801 224.225 158.648C224.76 158.495 225.296 158.342 225.831 158.189C226.366 158.113 226.824 157.998 227.207 157.845ZM265.735 137.549C263.518 141.524 261.224 145.5 258.855 149.475C256.485 153.526 253.504 157.348 249.911 160.941C253.58 157.501 256.6 153.756 258.969 149.704C261.416 145.729 263.671 141.677 265.735 137.549ZM257.135 108.768L260.919 118.171L261.607 117.483L257.135 108.768ZM263.212 116.565C263.518 115.648 263.785 114.731 264.015 113.813L264.703 111.061L264.015 110.717L262.753 115.189C262.906 115.801 263.059 116.26 263.212 116.565ZM250.255 112.437C249.414 110.45 248.42 108.5 247.273 106.589C246.203 104.602 245.018 102.652 243.719 100.741C244.865 102.958 246.05 105.175 247.273 107.392C248.496 109.456 249.643 111.558 250.713 113.699L250.255 112.437ZM253.007 99.3653C253.083 100.512 253.236 101.468 253.465 102.232C253.771 102.996 254.077 103.684 254.383 104.296C254.765 104.831 255.109 105.366 255.415 105.901C255.797 106.36 256.141 106.933 256.447 107.621L256.217 107.277L253.007 99.3653ZM261.836 117.941L261.033 118.859C261.186 119.088 261.339 119.317 261.492 119.547C261.645 119.7 261.76 119.929 261.836 120.235L262.409 119.317L261.836 117.941Z" fill="#FE9F45" style="fill:#FE9F45;fill:color(display-p3 0.9961 0.6235 0.2706);fill-opacity:1;"/>
<path d="M76.8679 152.4L76.7059 160.968H74.8879L74.7259 152.4H76.8679ZM74.5819 163.758C74.5819 163.434 74.6779 163.176 74.8699 162.984C75.0619 162.78 75.3259 162.654 75.6619 162.606C76.0699 162.57 76.3939 162.666 76.6339 162.894C76.8859 163.11 77.0119 163.434 77.0119 163.866C77.0119 164.178 76.9159 164.436 76.7239 164.64C76.5319 164.844 76.2679 164.97 75.9319 165.018C75.5359 165.054 75.2119 164.958 74.9599 164.73C74.7079 164.502 74.5819 164.178 74.5819 163.758ZM94.54 163.146V165H83.416C82.696 165 82.036 164.826 81.436 164.478C80.836 164.118 80.356 163.638 79.996 163.038C79.648 162.438 79.474 161.778 79.474 161.058V158.322H81.31V161.058C81.31 161.634 81.514 162.126 81.922 162.534C82.342 162.942 82.84 163.146 83.416 163.146H90.148C90.316 163.146 90.46 163.092 90.58 162.984C90.7 162.864 90.76 162.726 90.76 162.57V152.454H92.614V163.146H94.54ZM87.898 157.386H84.28V156.432H84.892C84.724 156.156 84.646 155.886 84.658 155.622C84.706 155.178 84.886 154.812 85.198 154.524C85.51 154.224 85.882 154.074 86.314 154.074C86.698 154.074 87.034 154.182 87.322 154.398C87.622 154.614 87.826 154.896 87.934 155.244L87.16 155.766C87.004 155.286 86.722 155.046 86.314 155.046C86.122 155.046 85.96 155.112 85.828 155.244C85.708 155.364 85.648 155.52 85.648 155.712C85.648 155.892 85.702 156.06 85.81 156.216C85.93 156.36 86.098 156.432 86.314 156.432H87.898V157.386ZM100.261 163.146C100.525 163.146 100.747 163.236 100.927 163.416C101.107 163.584 101.197 163.8 101.197 164.064C101.197 164.328 101.101 164.55 100.909 164.73C100.729 164.91 100.513 165 100.261 165H99.6494C99.2054 165 98.7854 164.91 98.3894 164.73C97.9934 164.538 97.6574 164.28 97.3814 163.956C97.1174 164.28 96.7994 164.538 96.4274 164.73C96.0554 164.91 95.6534 165 95.2214 165H94.3574C94.0814 165 93.8534 164.916 93.6734 164.748C93.4814 164.568 93.3854 164.346 93.3854 164.082C93.3854 163.818 93.4814 163.596 93.6734 163.416C93.8534 163.236 94.0814 163.146 94.3574 163.146H95.0054C95.3774 163.146 95.6894 163.014 95.9414 162.75C96.2054 162.486 96.3374 162.168 96.3374 161.796V158.142H98.2094V161.814C98.2454 162.186 98.4014 162.504 98.6774 162.768C98.9534 163.02 99.2774 163.146 99.6494 163.146H100.261ZM96.1034 167.754C96.1034 167.454 96.2174 167.19 96.4454 166.962C96.6734 166.746 96.9374 166.638 97.2374 166.638C97.5494 166.638 97.8134 166.746 98.0294 166.962C98.2574 167.19 98.3714 167.454 98.3714 167.754C98.3714 168.066 98.2574 168.33 98.0294 168.546C97.8134 168.774 97.5494 168.888 97.2374 168.888C96.9254 168.888 96.6554 168.774 96.4274 168.546C96.2114 168.33 96.1034 168.066 96.1034 167.754ZM107.411 163.146C107.675 163.146 107.897 163.236 108.077 163.416C108.257 163.584 108.347 163.8 108.347 164.064C108.347 164.328 108.251 164.55 108.059 164.73C107.879 164.91 107.663 165 107.411 165H106.115C105.671 165 105.251 164.91 104.855 164.73C104.459 164.538 104.123 164.28 103.847 163.956C103.583 164.28 103.265 164.538 102.893 164.73C102.521 164.91 102.119 165 101.687 165H100.229C99.9525 165 99.7245 164.91 99.5445 164.73C99.3525 164.55 99.2565 164.328 99.2565 164.064C99.2565 163.8 99.3525 163.584 99.5445 163.416C99.7245 163.236 99.9525 163.146 100.229 163.146H101.489C101.849 163.146 102.155 163.014 102.407 162.75C102.671 162.486 102.803 162.168 102.803 161.796V157.962H104.675V161.814C104.711 162.186 104.867 162.504 105.143 162.768C105.419 163.02 105.743 163.146 106.115 163.146H107.411ZM102.083 166.638C102.395 166.638 102.659 166.746 102.875 166.962C103.103 167.19 103.217 167.454 103.217 167.754C103.217 168.066 103.103 168.33 102.875 168.546C102.659 168.774 102.395 168.888 102.083 168.888C101.771 168.888 101.501 168.774 101.273 168.546C101.057 168.33 100.949 168.066 100.949 167.754C100.949 167.454 101.063 167.19 101.291 166.962C101.519 166.746 101.783 166.638 102.083 166.638ZM105.161 166.638C105.473 166.638 105.743 166.746 105.971 166.962C106.199 167.19 106.313 167.454 106.313 167.754C106.313 168.066 106.199 168.33 105.971 168.546C105.743 168.774 105.473 168.888 105.161 168.888C104.849 168.888 104.585 168.774 104.369 168.546C104.153 168.33 104.045 168.066 104.045 167.754C104.045 167.454 104.153 167.19 104.369 166.962C104.597 166.746 104.861 166.638 105.161 166.638ZM107.365 165C107.101 165 106.879 164.91 106.699 164.73C106.507 164.55 106.411 164.328 106.411 164.064C106.411 163.812 106.507 163.596 106.699 163.416C106.879 163.236 107.101 163.146 107.365 163.146H115.357C115.201 163.038 115.069 162.9 114.961 162.732C114.865 162.552 114.817 162.354 114.817 162.138V161.634C114.817 160.41 114.445 159.522 113.701 158.97C113.077 158.49 112.285 158.25 111.325 158.25C110.509 158.25 109.687 158.4 108.859 158.7L108.121 157.008C109.189 156.612 110.233 156.414 111.253 156.414C112.669 156.414 113.857 156.78 114.817 157.512C115.345 157.896 115.777 158.424 116.113 159.096C116.449 159.756 116.617 160.566 116.617 161.526V162.12C116.617 162.42 116.701 162.666 116.869 162.858C117.037 163.05 117.259 163.146 117.535 163.146H117.841V165H107.365ZM112.333 166.566C112.645 166.566 112.909 166.674 113.125 166.89C113.353 167.106 113.467 167.37 113.467 167.682C113.467 167.994 113.353 168.258 113.125 168.474C112.909 168.702 112.645 168.816 112.333 168.816C112.033 168.816 111.769 168.702 111.541 168.474C111.313 168.258 111.199 167.994 111.199 167.682C111.199 167.382 111.307 167.118 111.523 166.89C111.751 166.674 112.021 166.566 112.333 166.566ZM138.533 163.146C138.797 163.146 139.019 163.236 139.199 163.416C139.391 163.584 139.487 163.794 139.487 164.046C139.487 164.31 139.391 164.538 139.199 164.73C139.019 164.91 138.797 165 138.533 165C137.981 165 137.429 164.94 136.877 164.82C137.153 165.132 137.291 165.516 137.291 165.972C137.291 166.596 137.135 167.166 136.823 167.682C136.511 168.21 136.091 168.624 135.563 168.924C135.035 169.236 134.465 169.392 133.853 169.392H128.309C127.445 169.392 126.641 169.176 125.897 168.744C125.165 168.312 124.583 167.724 124.151 166.98C123.719 166.248 123.503 165.45 123.503 164.586V161.436H125.357V164.586C125.357 165.114 125.489 165.606 125.753 166.062C126.017 166.518 126.377 166.878 126.833 167.142C127.289 167.406 127.781 167.538 128.309 167.538H133.853C134.273 167.538 134.639 167.382 134.951 167.07C135.263 166.758 135.419 166.392 135.419 165.972C135.419 165.6 135.305 165.264 135.077 164.964C134.861 164.664 134.573 164.454 134.213 164.334L131.531 163.254L132.341 161.544C132.653 161.676 132.947 161.802 133.223 161.922C134.051 162.27 134.483 162.45 134.519 162.462C135.815 162.918 137.153 163.146 138.533 163.146ZM129.299 170.58C129.611 170.58 129.881 170.688 130.109 170.904C130.337 171.132 130.451 171.396 130.451 171.696C130.451 172.008 130.337 172.272 130.109 172.488C129.881 172.716 129.611 172.83 129.299 172.83C128.987 172.83 128.723 172.716 128.507 172.488C128.291 172.272 128.183 172.008 128.183 171.696C128.183 171.396 128.291 171.132 128.507 170.904C128.735 170.688 128.999 170.58 129.299 170.58ZM132.395 170.58C132.707 170.58 132.971 170.688 133.187 170.904C133.415 171.132 133.529 171.396 133.529 171.696C133.529 172.008 133.415 172.272 133.187 172.488C132.971 172.716 132.707 172.83 132.395 172.83C132.083 172.83 131.813 172.716 131.585 172.488C131.369 172.272 131.261 172.008 131.261 171.696C131.261 171.384 131.369 171.12 131.585 170.904C131.813 170.688 132.083 170.58 132.395 170.58ZM143.823 152.562C144.135 152.562 144.405 152.676 144.633 152.904C144.861 153.12 144.975 153.378 144.975 153.678C144.975 153.99 144.861 154.26 144.633 154.488C144.405 154.704 144.135 154.812 143.823 154.812C143.523 154.812 143.259 154.704 143.031 154.488C142.815 154.26 142.707 153.99 142.707 153.678C142.707 153.366 142.815 153.102 143.031 152.886C143.259 152.67 143.523 152.562 143.823 152.562ZM147.693 163.632C147.693 164.016 147.561 164.34 147.297 164.604C147.033 164.868 146.715 165 146.343 165H138.351V163.146H140.565C140.253 162.87 140.013 162.534 139.845 162.138C139.677 161.73 139.593 161.304 139.593 160.86V160.32C139.593 159.588 139.779 158.928 140.151 158.34C140.523 157.74 141.021 157.266 141.645 156.918C142.269 156.57 142.947 156.396 143.679 156.396H147.693V163.632ZM143.697 158.16C143.289 158.16 142.905 158.262 142.545 158.466C142.197 158.67 141.921 158.952 141.717 159.312C141.513 159.66 141.411 160.038 141.411 160.446V160.932C141.423 161.544 141.651 162.066 142.095 162.498C142.551 162.93 143.085 163.146 143.697 163.146H145.569C145.653 163.146 145.719 163.116 145.767 163.056C145.827 162.996 145.857 162.924 145.857 162.84V158.16H143.697ZM157.036 152.634C157.348 152.634 157.612 152.742 157.828 152.958C158.056 153.174 158.17 153.438 158.17 153.75C158.17 154.062 158.056 154.332 157.828 154.56C157.612 154.776 157.348 154.884 157.036 154.884C156.724 154.884 156.454 154.776 156.226 154.56C156.01 154.332 155.902 154.062 155.902 153.75C155.902 153.45 156.01 153.192 156.226 152.976C156.454 152.748 156.724 152.634 157.036 152.634ZM160.06 152.634C160.372 152.634 160.642 152.748 160.87 152.976C161.098 153.192 161.212 153.45 161.212 153.75C161.212 154.062 161.098 154.332 160.87 154.56C160.642 154.776 160.372 154.884 160.06 154.884C159.748 154.884 159.484 154.776 159.268 154.56C159.052 154.332 158.944 154.062 158.944 153.75C158.944 153.438 159.052 153.174 159.268 152.958C159.496 152.742 159.76 152.634 160.06 152.634ZM164.092 163.146C164.356 163.146 164.572 163.236 164.74 163.416C164.92 163.596 165.016 163.812 165.028 164.064C165.028 164.316 164.938 164.532 164.758 164.712C164.578 164.892 164.362 164.988 164.11 165H163.174C162.658 165 162.178 164.874 161.734 164.622C161.29 164.358 160.942 164.004 160.69 163.56C160.354 164.004 159.922 164.358 159.394 164.622C158.878 164.874 158.326 165 157.738 165C157.006 165 156.322 164.82 155.686 164.46C155.05 164.1 154.546 163.614 154.174 163.002C153.802 162.39 153.616 161.718 153.616 160.986V160.428C153.616 159.648 153.796 158.952 154.156 158.34C154.516 157.728 155.008 157.254 155.632 156.918C156.256 156.57 156.958 156.396 157.738 156.396H161.896L161.914 161.886C161.914 162.258 162.022 162.564 162.238 162.804C162.466 163.032 162.778 163.146 163.174 163.146H164.092ZM157.738 163.146C158.158 163.146 158.542 163.044 158.89 162.84C159.25 162.624 159.532 162.342 159.736 161.994C159.94 161.634 160.042 161.244 160.042 160.824V158.286L157.738 158.268C157.342 158.256 156.964 158.34 156.604 158.52C156.256 158.7 155.974 158.958 155.758 159.294C155.542 159.618 155.434 159.996 155.434 160.428V160.914C155.434 161.322 155.536 161.7 155.74 162.048C155.956 162.384 156.238 162.654 156.586 162.858C156.946 163.05 157.33 163.146 157.738 163.146ZM178.798 161.436C178.798 162.096 178.63 162.702 178.294 163.254C177.97 163.794 177.526 164.22 176.962 164.532C176.41 164.844 175.804 165 175.144 165C174.544 165 174.016 164.88 173.56 164.64C173.104 164.4 172.738 164.076 172.462 163.668C171.754 164.556 170.8 165 169.6 165C169.132 165 168.688 164.904 168.268 164.712C167.86 164.52 167.512 164.25 167.224 163.902C166.996 164.238 166.702 164.508 166.342 164.712C165.994 164.904 165.61 165 165.19 165H163.948C163.684 165 163.462 164.91 163.282 164.73C163.102 164.55 163.012 164.334 163.012 164.082C163.012 163.83 163.102 163.614 163.282 163.434C163.462 163.242 163.684 163.146 163.948 163.146H165.19C165.442 163.146 165.658 163.062 165.838 162.894C166.018 162.714 166.108 162.498 166.108 162.246V158.178H167.944V161.49C167.944 161.97 168.112 162.366 168.448 162.678C168.784 162.99 169.204 163.146 169.708 163.146C170.26 163.146 170.704 162.984 171.04 162.66C171.376 162.336 171.544 161.928 171.544 161.436V158.178H173.38V161.49C173.38 161.97 173.542 162.366 173.866 162.678C174.202 162.99 174.628 163.146 175.144 163.146C175.696 163.146 176.134 162.984 176.458 162.66C176.794 162.336 176.962 161.928 176.962 161.436V156.45H178.798V161.436ZM184.554 164.694C184.554 166.074 184.176 167.154 183.42 167.934C182.664 168.714 181.65 169.146 180.378 169.23L179.712 167.466C180.732 167.358 181.482 167.1 181.962 166.692C182.454 166.296 182.7 165.63 182.7 164.694V156.45H184.554V164.694ZM196.836 163.146C197.1 163.146 197.316 163.242 197.484 163.434C197.664 163.614 197.754 163.83 197.754 164.082C197.754 164.334 197.664 164.55 197.484 164.73C197.316 164.91 197.1 165 196.836 165H196.404C195.864 165 195.348 164.904 194.856 164.712C194.376 164.52 193.95 164.244 193.578 163.884C193.278 164.232 192.912 164.508 192.48 164.712C192.06 164.904 191.616 165 191.148 165H186.396V163.146H191.148C191.364 163.146 191.556 163.104 191.724 163.02C191.892 162.936 192.018 162.828 192.102 162.696C192.294 162.48 192.39 162.228 192.39 161.94C192.39 161.88 192.378 161.778 192.354 161.634L190.968 156.414L192.732 155.928L194.226 161.436C194.358 161.94 194.622 162.354 195.018 162.678C195.414 162.99 195.876 163.146 196.404 163.146H196.836ZM196.011 163.416C196.179 163.236 196.395 163.146 196.659 163.146H197.253C197.649 163.146 197.955 163.032 198.171 162.804C198.399 162.564 198.513 162.258 198.513 161.886V156.396H202.689C203.457 156.396 204.153 156.582 204.777 156.954C205.413 157.326 205.911 157.83 206.271 158.466C206.631 159.102 206.811 159.81 206.811 160.59V161.04C206.799 161.76 206.601 162.426 206.217 163.038C205.845 163.638 205.341 164.118 204.705 164.478C204.081 164.826 203.403 165 202.671 165C202.083 165 201.531 164.868 201.015 164.604C200.499 164.34 200.073 163.992 199.737 163.56C199.485 164.004 199.137 164.358 198.693 164.622C198.249 164.874 197.769 165 197.253 165H196.641C196.389 164.988 196.173 164.892 195.993 164.712C195.813 164.532 195.723 164.316 195.723 164.064C195.735 163.812 195.831 163.596 196.011 163.416ZM201.069 162.552C201.513 162.948 202.053 163.146 202.689 163.146C203.313 163.134 203.847 162.918 204.291 162.498C204.735 162.066 204.963 161.55 204.975 160.95V160.518C204.975 159.87 204.747 159.33 204.291 158.898C203.847 158.466 203.295 158.25 202.635 158.25H200.385V161.022C200.397 161.634 200.625 162.144 201.069 162.552Z" fill="white" fill-opacity="0.9" style="fill:white;fill-opacity:0.9;"/>
</svg>
