<svg width="54" height="26" viewBox="0 0 54 26" fill="none" xmlns="http://www.w3.org/2000/svg">
<path d="M8.95416 9.8427C8.38157 9.63715 7.78697 9.50502 7.17034 9.44629C6.58307 9.37288 5.98112 9.30682 5.36449 9.24809C5.9224 9.33618 6.49498 9.41693 7.08225 9.49034C7.69888 9.56374 8.2788 9.72524 8.82202 9.97483C8.7633 10.0336 8.70457 10.0849 8.64584 10.129C8.58712 10.173 8.52839 10.1951 8.46966 10.1951C8.26412 10.1951 8.06592 10.173 7.87506 10.129C7.6842 10.0703 7.47865 10.0409 7.25843 10.0409V9.77663C7.18502 9.79131 7.08225 9.79865 6.95011 9.79865C6.58307 9.79865 6.22337 9.74727 5.87101 9.64449C5.51865 9.54172 5.15895 9.49034 4.79191 9.49034C4.60105 9.49034 4.41753 9.51236 4.24135 9.5564V9.64449C4.71116 9.67386 5.18831 9.72524 5.67281 9.79865C6.17199 9.85738 6.6785 9.93813 7.19236 10.0409C6.72255 9.96749 6.21603 9.90142 5.67281 9.8427C5.14427 9.78397 4.64509 9.75461 4.17528 9.75461C3.98442 9.75461 3.8009 9.76195 3.62472 9.77663C3.46322 9.77663 3.30172 9.78397 3.14022 9.79865C3.14022 10.107 3.14757 10.4667 3.16225 10.8778C3.17693 11.2888 3.20629 11.6926 3.25034 12.089C3.29438 12.4707 3.34577 12.8084 3.40449 13.102C3.46322 13.3957 3.53663 13.5865 3.62472 13.6746L3.82292 14.071C3.9991 14.6142 4.58637 14.8858 5.58472 14.8858C5.80494 14.8858 6.06921 14.8565 6.37753 14.7978C6.68584 14.739 6.99416 14.673 7.30247 14.5996C7.62547 14.5115 7.92644 14.4381 8.20539 14.3793C8.49903 14.3206 8.74861 14.2912 8.95416 14.2912C9.1597 14.2912 9.27715 14.3206 9.30652 14.3793C9.33588 14.4381 9.35056 14.5188 9.35056 14.6216C8.73393 14.695 8.13933 14.8051 7.56674 14.9519C7.06757 15.084 6.58307 15.1868 6.11326 15.2602C6.58307 15.1868 7.06023 15.0987 7.54472 14.996C8.1173 14.8638 8.69723 14.761 9.28449 14.6876C9.25513 14.7757 9.24045 14.8345 9.24045 14.8638C9.24045 14.9519 9.27715 15.0253 9.35056 15.084L9.65888 15.04C9.74697 15.0253 9.83506 15.018 9.92315 15.018C10.0112 15.0033 10.092 14.9813 10.1654 14.9519C10.4297 15.0253 10.6132 15.1061 10.716 15.1942C10.8334 15.2822 10.8921 15.3777 10.8921 15.4804C10.8921 15.6713 10.7967 15.8034 10.6058 15.8769C10.4297 15.9503 10.2608 16.0677 10.0993 16.2292H10.0112C9.58547 16.2292 9.17438 16.2659 8.77798 16.3393C8.38157 16.3981 7.98517 16.4641 7.58876 16.5375C7.20704 16.6109 6.81064 16.6843 6.39955 16.7578C6.00315 16.8165 5.59206 16.8458 5.16629 16.8458H4.85798H4.72584C5.00479 16.8752 5.30577 16.8899 5.62876 16.8899C6.03985 16.8899 6.42157 16.8679 6.77393 16.8238C7.14097 16.7798 7.49333 16.7284 7.83101 16.6697C8.16869 16.6109 8.49169 16.5596 8.8 16.5155C9.123 16.4715 9.44599 16.4494 9.76899 16.4494C9.53408 16.5669 9.24779 16.6843 8.91011 16.8018C8.57244 16.9046 8.19805 16.9927 7.78697 17.0661C7.37588 17.1542 6.95011 17.2202 6.50966 17.2643C6.06921 17.323 5.63611 17.3524 5.21034 17.3524C4.9167 17.3524 4.63041 17.3377 4.35146 17.3083C4.07251 17.279 3.77154 17.1835 3.44854 17.022L3.42652 16.7798C3.22097 16.7064 3.00075 16.5742 2.76584 16.3834C2.54562 16.1778 2.34008 15.9649 2.14921 15.7447C1.95835 15.5245 1.79685 15.319 1.66472 15.1281C1.53258 14.9372 1.46652 14.8124 1.46652 14.7537L1.40045 14.5555C1.26831 14.2766 1.1582 13.9682 1.07011 13.6306C0.996704 13.2929 0.937978 12.9552 0.893933 12.6175C0.849888 12.2652 0.813184 11.9201 0.78382 11.5825C0.754457 11.2448 0.732435 10.9291 0.717753 10.6355C0.68839 10.151 0.666367 9.66652 0.651685 9.18202C0.637004 8.68285 0.629663 8.18367 0.629663 7.68449C0.629663 7.18532 0.629663 6.68614 0.629663 6.18697C0.644345 5.67311 0.651685 5.15925 0.651685 4.64539H0.585618C0.51221 5.2033 0.468165 5.73918 0.453483 6.25303C0.453483 6.76689 0.453483 7.28075 0.453483 7.79461V8.65348C0.453483 9.6812 0.504869 10.753 0.607641 11.8688C0.725094 12.9846 1.01139 14.071 1.46652 15.1281C1.12884 14.5555 0.915955 13.9903 0.827865 13.4324C0.739775 12.8598 0.659026 12.3312 0.585618 11.8467C0.497528 11.2154 0.431461 10.6061 0.387416 10.0189C0.358053 9.43161 0.343371 8.82966 0.343371 8.21303V7.75056C0.343371 6.89903 0.365393 6.03281 0.409438 5.15191C0.453483 4.27101 0.585618 3.33873 0.805843 2.35506C0.717753 2.35506 0.673708 2.31101 0.673708 2.22292C0.673708 2.13483 0.717753 2.01004 0.805843 1.84854C0.908614 1.68704 1.03341 1.53288 1.18022 1.38607C1.32704 1.22457 1.48854 1.09243 1.66472 0.989661C1.85558 0.872209 2.0391 0.813482 2.21528 0.813482H7.45663C7.99985 0.916254 8.52839 1.00434 9.04225 1.07775C9.57079 1.13648 10.1213 1.18052 10.6939 1.20989L10.6719 1.7164C10.6719 1.80449 10.6279 1.8779 10.5398 1.93663C10.4664 1.98067 10.2902 2.0027 10.0112 2.0027C9.92315 2.0027 9.81303 2.0027 9.6809 2.0027C9.56345 1.98801 9.43131 1.97333 9.28449 1.95865V2.15685C9.88644 2.28899 10.3563 2.45049 10.6939 2.64135C11.0463 2.83221 11.2225 3.01573 11.2225 3.19191C11.2225 3.39745 11.0243 3.52225 10.6279 3.56629C10.2461 3.61034 9.73229 3.63236 9.08629 3.63236C8.26412 3.63236 7.38322 3.63236 6.4436 3.63236C5.51865 3.61768 4.62307 3.57363 3.75685 3.50022H3.38247C3.30906 4.05813 3.25768 4.63071 3.22831 5.21798C3.19895 5.80524 3.17693 6.40719 3.16225 7.02382C3.39715 7.02382 3.62472 7.01648 3.84494 7.0018C4.07985 6.97243 4.3221 6.95775 4.57169 6.95775C4.77723 6.95775 5.01214 6.97977 5.27641 7.02382C5.55536 7.05318 5.84165 7.09723 6.13528 7.15595C6.4436 7.21468 6.74457 7.28809 7.0382 7.37618C7.34652 7.44959 7.62547 7.53034 7.87506 7.61843C7.9191 7.63311 7.97049 7.64045 8.02921 7.64045H8.4036C8.59446 7.64045 8.71925 7.66981 8.77798 7.72854C8.85139 7.78727 8.88809 7.90472 8.88809 8.0809C8.6385 8.0809 8.4036 8.06622 8.18337 8.03685C7.96315 8.00749 7.75026 7.97813 7.54472 7.94876C7.75026 8.02217 7.96315 8.0809 8.18337 8.12494C8.4036 8.15431 8.6385 8.18367 8.88809 8.21303C8.85873 8.28644 8.8367 8.35251 8.82202 8.41124C8.82202 8.46996 8.82202 8.52135 8.82202 8.56539C8.96884 8.59476 9.06427 8.66816 9.10832 8.78562C9.16704 8.88839 9.19641 9.00584 9.19641 9.13798C9.19641 9.32884 9.15236 9.483 9.06427 9.60045C8.99086 9.70322 8.95416 9.78397 8.95416 9.8427ZM1.20225 12.3312C1.26097 12.6836 1.32704 13.0653 1.40045 13.4764C1.48854 13.8728 1.61333 14.2692 1.77483 14.6656C1.95101 15.0473 2.18592 15.407 2.47955 15.7447C2.71446 16.0237 3.02277 16.2586 3.40449 16.4494C2.96405 16.2145 2.60434 15.8915 2.32539 15.4804C2.0024 14.9813 1.74547 14.4234 1.55461 13.8067C1.37843 13.1901 1.24629 12.5368 1.1582 11.8467C1.08479 11.1567 1.02607 10.496 0.982023 9.86472C0.996704 10.2611 1.01873 10.6649 1.04809 11.076C1.07745 11.487 1.12884 11.9055 1.20225 12.3312ZM6.59775 7.83865C6.84734 7.8827 7.11161 7.9194 7.39056 7.94876C7.12629 7.87536 6.8767 7.82397 6.6418 7.79461C6.40689 7.75056 6.17199 7.69918 5.93708 7.64045C6.12794 7.72854 6.34817 7.79461 6.59775 7.83865ZM2.98607 16.8679C2.79521 16.7798 2.62637 16.677 2.47955 16.5596C2.37678 16.4715 2.28135 16.3834 2.19326 16.2953C2.28135 16.3834 2.38412 16.4641 2.50157 16.5375C2.66307 16.655 2.82457 16.7651 2.98607 16.8679ZM3.64674 16.5596L3.44854 16.4715L3.64674 16.5596ZM40.1794 9.20404C39.8858 9.46831 39.5335 9.72524 39.1224 9.97483C38.7113 10.2244 38.2855 10.4593 37.8451 10.6796C37.4046 10.8851 36.9715 11.0686 36.5457 11.2301C36.12 11.3769 35.7382 11.4944 35.4006 11.5825C35.0629 11.6852 34.7546 11.788 34.4756 11.8908C34.1967 11.9789 33.9324 12.0816 33.6828 12.1991C33.4332 12.3166 33.1836 12.4487 32.934 12.5955C32.6845 12.7423 32.4275 12.9185 32.1633 13.124C31.9724 13.2709 31.8109 13.3883 31.6788 13.4764C31.5613 13.5645 31.4585 13.6379 31.3705 13.6966C31.297 13.7554 31.231 13.7994 31.1723 13.8288C31.1282 13.8581 31.0842 13.8875 31.0401 13.9169L31.8329 13.9829C32.4496 14.0416 33.0442 14.1077 33.6167 14.1811C34.1893 14.2399 34.7693 14.3059 35.3565 14.3793C35.6061 14.4087 35.7529 14.4307 35.797 14.4454C35.841 14.4454 35.8851 14.4454 35.9291 14.4454C37.133 14.5188 37.9772 14.5775 38.4617 14.6216C38.9462 14.6509 39.1884 14.7537 39.1884 14.9299C39.1884 14.9886 39.1811 15.0253 39.1664 15.04C38.5645 15.0106 37.9772 14.9593 37.4046 14.8858C36.8467 14.7978 36.186 14.739 35.4226 14.7097C35.129 14.6656 34.7839 14.6289 34.3875 14.5996C34.0058 14.5555 33.6021 14.5261 33.1763 14.5115C32.7652 14.4821 32.3468 14.4601 31.921 14.4454C31.5099 14.4307 31.1209 14.4234 30.7538 14.4234C30.4161 14.4234 30.1152 14.4307 29.8509 14.4454C29.5866 14.4454 29.3737 14.4601 29.2123 14.4894C29.6087 14.4894 30.0785 14.4968 30.6217 14.5115C31.1649 14.5261 31.7228 14.5482 32.2954 14.5775C32.868 14.5922 33.4259 14.6216 33.9691 14.6656C34.527 14.695 35.0042 14.739 35.4006 14.7978L36.1714 14.9079C36.6852 14.9813 37.1624 15.0253 37.6028 15.04C38.0579 15.0547 38.5498 15.0914 39.0783 15.1501C39.0049 15.2235 38.9682 15.2969 38.9682 15.3703C38.9682 15.5025 39.0563 15.5612 39.2325 15.5465C39.4233 15.5318 39.6876 15.5465 40.0253 15.5906C40.3189 15.708 40.5245 15.8181 40.6419 15.9209C40.7741 16.009 40.8401 16.0971 40.8401 16.1852C40.8401 16.2733 40.7814 16.3613 40.6639 16.4494C40.5465 16.5228 40.3997 16.5816 40.2235 16.6256L39.6729 16.7798C39.071 16.677 38.4911 16.6109 37.9332 16.5816C37.3899 16.5375 36.788 16.4788 36.1273 16.4054L35.5547 16.3393C35.0849 16.2806 34.6224 16.2292 34.1673 16.1852C33.7122 16.1411 33.2424 16.0971 32.7579 16.053L30.4235 15.8769C30.262 15.8622 30.0858 15.8548 29.8949 15.8548C29.7041 15.8401 29.5059 15.8328 29.3003 15.8328H28.9039C28.7718 15.8328 28.6323 15.8401 28.4855 15.8548L28.0891 15.8769V14.1811C28.0891 13.726 28.1992 13.3736 28.4194 13.124C28.6397 12.8598 28.8819 12.6616 29.1462 12.5294C29.2783 12.456 29.4105 12.3973 29.5426 12.3533C29.5132 12.3533 29.4839 12.3606 29.4545 12.3753C29.2343 12.4487 29.014 12.5588 28.7938 12.7056C28.5883 12.8378 28.4048 13.0213 28.2433 13.2562C28.0964 13.4911 28.023 13.7994 28.023 14.1811L28.001 15.9209H30.1372L31.4806 15.987C32.1706 16.031 32.8386 16.0897 33.4846 16.1631C34.1453 16.2366 34.7986 16.3173 35.4446 16.4054L36.1493 16.5155C36.7072 16.5742 37.2284 16.633 37.7129 16.6917C38.1974 16.7504 38.6966 16.8165 39.2105 16.8899C39.0049 16.9339 38.7773 16.9706 38.5278 17C38.2929 17.044 38.0286 17.0661 37.7349 17.0661C37.456 17.0661 37.2064 17.0514 36.9862 17.022C36.766 16.9927 36.509 16.9633 36.2154 16.9339L35.5107 16.8458C34.9968 16.7724 34.505 16.7137 34.0352 16.6697C33.5654 16.6109 33.0588 16.5522 32.5156 16.4935L32.3835 16.2512H30.5997C30.5263 16.2512 30.4455 16.2586 30.3574 16.2733C30.2693 16.2733 30.1666 16.2733 30.0491 16.2733H29.4985C29.3077 16.2733 29.1168 16.2733 28.926 16.2733C28.7351 16.2586 28.5296 16.2366 28.3093 16.2072L27.6927 16.1191V14.2031C27.6927 13.7187 27.7955 13.3296 28.001 13.036C28.2212 12.7276 28.4708 12.4854 28.7498 12.3092C29.0287 12.133 29.3077 11.9936 29.5866 11.8908C29.8656 11.788 30.0785 11.6926 30.2253 11.6045L30.7318 11.2081C31.3191 10.7676 31.9357 10.3786 32.5817 10.0409C33.2277 9.70322 33.903 9.43895 34.6078 9.24809L34.9381 9.16C35.2611 8.9985 35.6061 8.85903 35.9732 8.74157C36.3402 8.62412 36.6852 8.4773 37.0082 8.30112L36.9421 8.19101C36.5751 8.35251 36.2007 8.49198 35.819 8.60944C35.452 8.72689 35.1363 8.85168 34.872 8.98382L34.5417 9.07191C33.8076 9.27745 33.1029 9.5564 32.4275 9.90876C31.7669 10.2611 31.1649 10.6502 30.6217 11.076L30.1812 11.4503H30.0932C30.0491 11.4503 29.9904 11.465 29.917 11.4944L30.1372 11.3843C30.93 10.7089 31.7008 10.1877 32.4496 9.82067C33.213 9.43895 33.9691 9.13798 34.7179 8.91775C35.2758 8.71221 35.7309 8.55805 36.0833 8.45528C36.4356 8.33783 36.766 8.19835 37.0743 8.03685C36.5017 7.90472 35.9952 7.81663 35.5547 7.77258C35.1143 7.71386 34.7032 7.68449 34.3215 7.68449C34.1306 7.68449 33.9471 7.69183 33.7709 7.70652C33.5947 7.70652 33.4185 7.71386 33.2424 7.72854C33.1396 7.71386 33.0368 7.70652 32.934 7.70652H32.6478C32.1339 7.70652 31.6347 7.7579 31.1502 7.86067C30.6804 7.96345 30.2326 8.10292 29.8069 8.2791C29.8069 8.17633 29.7628 8.09558 29.6747 8.03685C29.6013 7.96345 29.5646 7.87535 29.5646 7.77258C29.5646 7.68449 29.66 7.57438 29.8509 7.44225C30.0564 7.31011 30.4308 7.18532 30.974 7.06786L30.93 6.84764C30.4308 6.92105 29.9977 6.98712 29.6307 7.04584C29.2636 7.10457 28.9553 7.13393 28.7057 7.13393C28.5442 7.13393 28.4194 7.12659 28.3314 7.11191C28.2579 7.09723 28.2066 7.04584 28.1772 6.95775C28.1772 6.92839 28.1845 6.89903 28.1992 6.86966C28.2139 6.8403 28.2212 6.81094 28.2212 6.78157C28.5149 6.48794 28.8746 6.23101 29.3003 6.01079C29.7261 5.77588 30.1959 5.58502 30.7098 5.4382C31.2383 5.2767 31.7962 5.15925 32.3835 5.08584C32.9708 4.99775 33.5727 4.95371 34.1893 4.95371C34.6445 4.95371 35.151 4.99041 35.7089 5.06382C36.2815 5.13723 36.9128 5.23266 37.6028 5.35011C37.7496 5.39416 37.8818 5.4382 37.9992 5.48225C38.1167 5.51161 38.2415 5.54831 38.3736 5.59236C38.5057 5.6364 38.6526 5.68779 38.814 5.74652C38.9755 5.80524 39.1738 5.87865 39.4087 5.96674C39.394 5.95206 39.4894 5.98876 39.6949 6.07685C39.9152 6.16494 40.1354 6.32644 40.3556 6.56135L40.1794 9.20404ZM27.5165 14.2031C27.5165 13.8655 27.5532 13.5865 27.6266 13.3663C27.7147 13.1461 27.8322 12.9552 27.979 12.7937C27.8615 12.9699 27.7588 13.1681 27.6707 13.3883C27.5973 13.6085 27.5606 13.8508 27.5606 14.1151V16.1852L28.2433 16.3173C28.4488 16.3613 28.6543 16.3907 28.8599 16.4054C29.0654 16.4201 29.2636 16.4274 29.4545 16.4274C29.66 16.4274 29.8436 16.4274 30.0051 16.4274C30.1666 16.4127 30.3281 16.4054 30.4896 16.4054L32.1853 16.4274L30.5116 16.4494H30.2693C30.1372 16.4494 29.9904 16.4568 29.8289 16.4715C29.6821 16.4715 29.5206 16.4715 29.3444 16.4715C29.1829 16.4715 29.0067 16.4641 28.8158 16.4494C28.625 16.4348 28.4268 16.4054 28.2212 16.3613L27.5165 16.2292V14.2031ZM29.7408 11.6045L29.2783 11.9128C29.1021 12.0303 28.8893 12.1477 28.6397 12.2652C28.4048 12.3826 28.1845 12.5588 27.979 12.7937C28.2579 12.3826 28.5956 12.0816 28.992 11.8908C29.3884 11.6852 29.6967 11.5531 29.917 11.4944L29.7408 11.6045ZM30.7758 13.4544C30.5703 13.4544 30.3868 13.5351 30.2253 13.6966C30.0785 13.8434 29.961 13.9462 29.8729 14.0049L29.917 14.027C29.9904 13.9829 30.1299 13.9022 30.3354 13.7847C30.5409 13.6673 30.7612 13.5425 30.9961 13.4103C31.231 13.2782 31.4585 13.1534 31.6788 13.036C31.899 12.9038 32.0678 12.801 32.1853 12.7276C32.1119 12.7717 32.0018 12.8304 31.8549 12.9038C31.7228 12.9625 31.5833 13.0286 31.4365 13.102C31.2897 13.1754 31.1502 13.2488 31.0181 13.3222C30.9006 13.381 30.8199 13.425 30.7758 13.4544ZM29.939 12.1991C30.1886 12.111 30.3501 12.0009 30.4235 11.8688L30.5556 11.7807C30.8199 11.5751 31.0915 11.3622 31.3705 11.142C31.6641 10.9071 31.9651 10.6942 32.2734 10.5034C31.8623 10.7089 31.4879 10.9658 31.1502 11.2742C30.8126 11.5678 30.4308 11.8467 30.0051 12.111C29.9317 12.1551 29.8509 12.1991 29.7628 12.2431C29.8215 12.2285 29.8803 12.2138 29.939 12.1991Z" fill="#2A72AD" style="fill:#2A72AD;fill:color(display-p3 0.1647 0.4471 0.6784);fill-opacity:1;"/>
<path d="M20.4982 11.2301C20.1018 11.2301 19.8009 11.2228 19.5953 11.2081C19.4045 11.1934 19.2283 11.1861 19.0668 11.1861C18.6263 11.1861 18.2373 11.2081 17.8996 11.2521C17.5619 11.2962 17.2756 11.3843 17.0407 11.5164C16.8058 11.6485 16.6296 11.8394 16.5122 12.089C16.3947 12.3386 16.336 12.6689 16.336 13.08C16.336 13.6819 16.4021 14.1297 16.5342 14.4234C16.681 14.7023 16.8792 14.9079 17.1288 15.04C17.3931 15.1575 17.7087 15.2309 18.0758 15.2602C18.4428 15.2896 18.8539 15.3557 19.309 15.4584C19.5733 15.4878 19.8376 15.5098 20.1018 15.5245C20.3661 15.5245 20.6304 15.5245 20.8946 15.5245H22.4803C21.7462 15.4804 21.0121 15.4584 20.278 15.4584C19.5586 15.4437 18.9053 15.3777 18.318 15.2602C17.7454 15.1428 17.2756 14.9372 16.9086 14.6436C16.5562 14.35 16.38 13.9022 16.38 13.3002C16.38 12.8157 16.4388 12.4487 16.5562 12.1991C16.6883 11.9348 16.8572 11.744 17.0627 11.6265C17.283 11.4944 17.5399 11.421 17.8335 11.4063C18.1271 11.3769 18.4428 11.3622 18.7805 11.3622C19.1916 11.3622 19.61 11.3843 20.0358 11.4283C19.6981 11.5311 19.3531 11.6118 19.0007 11.6706C18.663 11.7146 18.3474 11.766 18.0537 11.8247C17.7601 11.8688 17.5032 11.9348 17.283 12.0229C17.0774 12.0963 16.9379 12.2064 16.8645 12.3533V13.3443L16.6883 13.4324C16.7471 13.7994 16.7985 14.0784 16.8425 14.2692C16.9012 14.4454 17.048 14.5849 17.283 14.6876C17.5179 14.7757 17.8922 14.8491 18.4061 14.9079C18.9346 14.9666 19.6981 15.062 20.6964 15.1942H22.2821C22.561 15.1942 22.7225 15.1868 22.7665 15.1721C22.8253 15.1428 22.862 15.1281 22.8767 15.1281L22.6785 13.9389C22.6491 13.6452 22.6124 13.381 22.5683 13.1461C22.5243 12.9112 22.4656 12.6616 22.3922 12.3973C22.3775 12.4413 22.3334 12.4634 22.26 12.4634C22.3334 12.713 22.3922 12.9772 22.4362 13.2562C22.4949 13.5351 22.539 13.7994 22.5683 14.049C22.6124 14.2986 22.6418 14.5115 22.6564 14.6876C22.6858 14.8638 22.7152 14.9666 22.7445 14.996L22.6124 15.04C22.583 15.0547 22.539 15.062 22.4803 15.062H22.3481C22.2454 15.062 22.1279 15.0547 21.9958 15.04C21.8636 15.0106 21.6948 14.996 21.4892 14.996H20.7625C20.1899 14.996 19.6614 14.9666 19.1769 14.9079C18.7218 14.8491 18.3254 14.7757 17.9877 14.6876C18.3254 14.761 18.7364 14.8198 19.2209 14.8638C19.7348 14.9225 20.2119 14.9519 20.6524 14.9519C20.8433 14.9519 21.0415 14.9519 21.247 14.9519C21.4672 14.9372 21.7021 14.9299 21.9517 14.9299H22.6785C22.6344 14.8858 22.583 14.8638 22.5243 14.8638H22.4803C22.4215 13.8508 22.2894 12.8818 22.0839 11.9569C21.8783 11.0319 21.548 10.2244 21.0928 9.53438C20.6377 8.82966 20.0431 8.27176 19.309 7.86067C18.5749 7.43491 17.6573 7.22202 16.5562 7.22202C16.2479 7.22202 15.9396 7.24404 15.6313 7.28809C15.323 7.33213 15.0073 7.39086 14.6843 7.46427C14.7137 7.43491 14.7283 7.40554 14.7283 7.37618C14.7283 7.30277 14.699 7.2367 14.6403 7.17798C14.5815 7.10457 14.5522 7.03116 14.5522 6.95775C14.5522 6.86966 14.6403 6.78891 14.8164 6.71551C15.0073 6.62742 15.4037 6.54667 16.0057 6.47326C15.9763 6.44389 15.9543 6.39985 15.9396 6.34112C15.9396 6.2824 15.9396 6.23835 15.9396 6.20899C15.1468 6.20899 14.5301 6.19431 14.0897 6.16494C13.6492 6.1209 13.429 6.01079 13.429 5.83461C13.429 5.7612 13.5171 5.65843 13.6933 5.52629C13.8842 5.39416 14.1484 5.26936 14.4861 5.15191C14.8238 5.01977 15.2275 4.90966 15.6973 4.82157C16.1818 4.7188 16.7177 4.66742 17.305 4.66742C18.4355 4.66742 19.4045 4.8436 20.2119 5.19595C21.0194 5.53363 21.6948 5.98876 22.238 6.56135C22.7959 7.11925 23.2437 7.7579 23.5814 8.4773C23.9337 9.1967 24.2127 9.92344 24.4182 10.6575C24.6385 11.3769 24.8 12.0816 24.9027 12.7717C25.0055 13.447 25.1009 14.0343 25.189 14.5335C25.189 14.6216 25.189 14.7097 25.189 14.7978C25.2037 14.8858 25.211 14.9886 25.211 15.1061C25.211 15.5318 25.1303 15.9062 24.9688 16.2292C24.822 16.5375 24.6091 16.7945 24.3301 17C24.0659 17.2202 23.7502 17.3817 23.3832 17.4845C23.0308 17.6019 22.6491 17.6607 22.238 17.6607C21.915 17.6607 21.4966 17.6533 20.9827 17.6387C20.4689 17.624 19.977 17.5799 19.5072 17.5065C19.1989 17.4331 18.8612 17.3744 18.4942 17.3303C18.1271 17.301 17.7528 17.2422 17.371 17.1542C16.9893 17.0661 16.6149 16.9413 16.2479 16.7798C15.8955 16.6183 15.5725 16.376 15.2789 16.053C15 15.7154 14.7724 15.2822 14.5962 14.7537C14.4347 14.2252 14.354 13.5572 14.354 12.7497C14.354 11.9862 14.5301 11.3769 14.8825 10.9218C15.2349 10.452 15.6533 10.0923 16.1378 9.8427C16.637 9.57843 17.1435 9.40959 17.6573 9.33618C18.1712 9.24809 18.5896 9.20404 18.9126 9.20404C19.3237 9.20404 19.5953 9.23341 19.7274 9.29213C19.8596 9.35086 19.9257 9.40959 19.9257 9.46831C19.9257 9.51236 19.9183 9.54906 19.9036 9.57843C19.5366 9.57843 19.0668 9.59311 18.4942 9.62247C17.9216 9.65183 17.3637 9.74727 16.8205 9.90876C16.2919 10.0703 15.8368 10.3198 15.4551 10.6575C15.0734 10.9805 14.8825 11.443 14.8825 12.0449C15.0146 11.5017 15.2349 11.076 15.5432 10.7676C15.8662 10.4446 16.2332 10.2097 16.6443 10.0629C17.0554 9.90142 17.4738 9.80599 17.8996 9.77663C18.34 9.73258 18.7364 9.71056 19.0888 9.71056H19.8376C19.7788 9.76929 19.7495 9.82801 19.7495 9.88674C19.7495 9.94547 19.7788 9.99685 19.8376 10.0409H20.6964C20.9313 10.0849 21.1002 10.1657 21.203 10.2831C21.3057 10.3859 21.3571 10.4813 21.3571 10.5694C21.3571 10.7016 21.291 10.819 21.1589 10.9218C21.0268 11.0246 20.8065 11.1273 20.4982 11.2301ZM16.7985 16.5596C17.2095 16.721 17.628 16.8458 18.0537 16.9339C18.4942 17.022 18.9273 17.0807 19.3531 17.1101C19.7788 17.1542 20.1752 17.1762 20.5423 17.1762C20.2486 17.1468 19.955 17.0954 19.6614 17.022C19.3531 16.9486 19.0815 16.8825 18.8465 16.8238C18.597 16.7651 18.3474 16.7284 18.0978 16.7137C17.8629 16.6843 17.6133 16.6476 17.349 16.6036C17.0994 16.5596 16.8425 16.4935 16.5782 16.4054C16.314 16.3026 16.0497 16.1558 15.7854 15.9649C16.0644 16.2145 16.4021 16.4127 16.7985 16.5596ZM17.0187 14.2472C17.004 14.2325 17.048 14.2766 17.1508 14.3793C17.2389 14.4674 17.3564 14.5335 17.5032 14.5775C17.4298 14.5482 17.3197 14.5115 17.1728 14.4674C17.0113 14.4087 16.9306 14.3206 16.9306 14.2031L17.0187 14.2472ZM17.5692 14.5775C17.5546 14.5775 17.5325 14.5775 17.5032 14.5775C17.5179 14.5775 17.5399 14.5775 17.5692 14.5775Z" fill="black" style="fill:black;fill-opacity:1;"/>
<path d="M42.6365 22.924C42.7539 23.0415 42.9522 23.1296 43.2311 23.1883C43.5247 23.2617 43.8037 23.2984 44.068 23.2984C44.5525 23.2984 45.0149 23.1369 45.4554 22.8139C45.8958 22.5056 46.3142 22.0799 46.7107 21.5366C47.1217 20.9934 47.5108 20.3694 47.8778 19.6647C48.2449 18.96 48.5972 18.2186 48.9349 17.4404H48.9129C48.6193 18.0864 48.3036 18.7471 47.9659 19.4225C47.6283 20.1125 47.2612 20.7365 46.8648 21.2944C46.4684 21.867 46.0353 22.3294 45.5655 22.6818C45.1104 23.0488 44.6185 23.2324 44.09 23.2324C43.6642 23.2324 43.2458 23.1076 42.8347 22.858C43.0549 22.7846 43.2605 22.7479 43.4513 22.7479C43.5101 22.7479 43.6128 22.7625 43.7596 22.7919C43.9945 22.7919 44.1928 22.7846 44.3542 22.7699C44.5157 22.7552 44.6699 22.7185 44.8167 22.6598C44.9635 22.6157 45.103 22.535 45.2351 22.4175C45.3673 22.3148 45.5141 22.1753 45.6756 21.9991L45.9399 22.0652C46.3656 21.5073 46.762 20.9053 47.1291 20.2593C47.5108 19.6133 47.8852 18.96 48.2522 18.2993L48.6486 17.4184L48.4504 17.3744L48.1201 18.1672C47.7824 18.8279 47.4301 19.4739 47.063 20.1052C46.696 20.7512 46.2775 21.3384 45.8077 21.867C46.3216 21.2357 46.7914 20.5309 47.2172 19.7528C47.6429 18.9747 48.032 18.1672 48.3844 17.3303L48.2522 17.1101C48.1788 16.7724 48.0687 16.4421 47.9219 16.1191C47.8191 15.8695 47.7017 15.6126 47.5695 15.3483C47.8338 15.9796 48.0173 16.5889 48.1201 17.1762C47.9733 17.1321 47.8485 17.044 47.7457 16.9119C47.6576 16.7651 47.5695 16.5963 47.4814 16.4054C47.408 16.2145 47.3346 16.0163 47.2612 15.8108C47.2025 15.6052 47.1217 15.3997 47.019 15.1942L47.1291 14.996C46.8942 14.6289 46.6372 14.1738 46.3583 13.6306C46.094 13.0873 45.8077 12.5294 45.4994 11.9569C45.2058 11.3843 44.9048 10.8264 44.5965 10.2831C44.2882 9.73992 43.9872 9.28479 43.6936 8.91775L43.6275 8.98382L46.3803 13.9389C45.8224 12.9993 45.2278 12.0449 44.5965 11.076C43.9652 10.107 43.3999 9.03521 42.9008 7.86067C42.9008 7.7579 42.8861 7.62577 42.8567 7.46427C42.8274 7.28809 42.7907 7.11191 42.7466 6.93573C42.7172 6.74487 42.6805 6.56135 42.6365 6.38517C42.5925 6.19431 42.5484 6.02547 42.5044 5.87865L43.0769 5.70247C43.1504 5.70247 43.2164 5.73918 43.2751 5.81258C43.3339 5.87131 43.3853 6.00345 43.4293 6.20899C43.5027 6.20899 43.5688 6.15026 43.6275 6.03281C43.6862 5.91535 43.745 5.78322 43.8037 5.6364C43.8771 5.48959 43.9505 5.35745 44.0239 5.24C44.112 5.12255 44.2221 5.06382 44.3542 5.06382C44.5451 5.06382 44.7139 5.19595 44.8608 5.46022C45.0223 5.70981 45.1691 6.01813 45.3012 6.38517C45.448 6.75221 45.6022 7.14127 45.7637 7.55236C45.9252 7.94876 46.116 8.29378 46.3363 8.58741C46.5712 8.98382 46.8061 9.37288 47.041 9.75461C47.2906 10.1363 47.5181 10.5401 47.7237 10.9658C47.9439 11.5531 48.2302 12.1477 48.5826 12.7497C48.9349 13.3369 49.2139 13.9536 49.4194 14.5996C49.7718 13.425 50.0507 12.3826 50.2563 11.4724C50.4765 10.5474 50.6453 9.62981 50.7628 8.71955C50.9243 8.24974 51.0638 7.7212 51.1812 7.13393C51.2987 6.54667 51.3574 5.97408 51.3574 5.41618L51.8419 5.4382C51.9153 5.4382 51.9814 5.47491 52.0401 5.54831C52.0988 5.60704 52.1282 5.7612 52.1282 6.01079C52.1282 6.08419 52.1208 6.16494 52.1062 6.25303C52.1062 6.32644 52.0988 6.42187 52.0841 6.53933H52.2823C52.4145 6.05483 52.5686 5.66577 52.7448 5.37213C52.921 5.0785 53.0898 4.93168 53.2513 4.93168C53.3688 4.93168 53.4789 5.05648 53.5817 5.30607C53.6991 5.55566 53.7578 5.97408 53.7578 6.56135C53.7578 7.54502 53.6404 8.60944 53.4055 9.75461C53.1706 10.8998 52.9283 12.0303 52.6787 13.1461C52.2677 14.6436 51.7832 16.0824 51.2253 17.4625C50.6674 18.8425 49.9626 20.2446 49.1111 21.6688C48.8468 22.0652 48.5459 22.4763 48.2082 22.902C47.8852 23.3425 47.5035 23.7389 47.063 24.0912C46.6372 24.4436 46.1454 24.7299 45.5875 24.9501C45.0443 25.185 44.4203 25.3025 43.7156 25.3025C43.2017 25.3025 42.8494 25.2364 42.6585 25.1043C42.4823 24.9721 42.3942 24.8694 42.3942 24.796C42.3942 24.7519 42.4089 24.7005 42.4383 24.6418C42.8787 24.7886 43.3486 24.862 43.8477 24.862C44.2001 24.862 44.6038 24.796 45.059 24.6638C45.5288 24.5464 45.9472 24.3628 46.3142 24.1133C45.9766 24.2894 45.5948 24.4436 45.1691 24.5757C44.758 24.7079 44.3836 24.7739 44.0459 24.7739C43.5174 24.7739 43.0035 24.7079 42.5044 24.5757C42.5044 24.473 42.4603 24.3775 42.3722 24.2894C42.2988 24.2013 42.2107 24.1133 42.108 24.0252C42.0052 23.9518 41.9098 23.871 41.8217 23.7829C41.7483 23.6948 41.7116 23.5921 41.7116 23.4746C41.7116 23.3572 41.7483 23.2691 41.8217 23.2103C41.8951 23.1516 41.9758 23.1076 42.0639 23.0782C42.1667 23.0488 42.2695 23.0195 42.3722 22.9901C42.475 22.9754 42.5631 22.9534 42.6365 22.924ZM50.036 19.0261C49.6103 19.7895 49.1698 20.553 48.7147 21.3164C48.2596 22.0945 47.687 22.8286 46.9969 23.5187C47.7017 22.858 48.2816 22.1386 48.7367 21.3604C49.2065 20.597 49.6396 19.8189 50.036 19.0261ZM48.3844 13.4984L49.1111 15.3043L49.2432 15.1721L48.3844 13.4984ZM49.5516 14.996C49.6103 14.8198 49.6617 14.6436 49.7057 14.4674L49.8378 13.9389L49.7057 13.8728L49.4635 14.7317C49.4928 14.8491 49.5222 14.9372 49.5516 14.996ZM47.063 14.2031C46.9015 13.8214 46.7107 13.447 46.4904 13.08C46.2849 12.6983 46.0573 12.3239 45.8077 11.9569C46.028 12.3826 46.2555 12.8084 46.4904 13.2342C46.7253 13.6306 46.9456 14.0343 47.1511 14.4454L47.063 14.2031ZM47.5916 11.6926C47.6062 11.9128 47.6356 12.0963 47.6796 12.2431C47.7384 12.39 47.7971 12.5221 47.8558 12.6396C47.9292 12.7423 47.9953 12.8451 48.054 12.9479C48.1274 13.036 48.1935 13.1461 48.2522 13.2782L48.2082 13.2121L47.5916 11.6926ZM49.2873 15.2602L49.1331 15.4364C49.1625 15.4804 49.1919 15.5245 49.2212 15.5685C49.2506 15.5979 49.2726 15.6419 49.2873 15.7007L49.3974 15.5245L49.2873 15.2602Z" fill="#FE9F45" style="fill:#FE9F45;fill:color(display-p3 0.9961 0.6235 0.2706);fill-opacity:1;"/>
</svg>
