<svg width="26" height="26" viewBox="0 0 26 26" fill="none" xmlns="http://www.w3.org/2000/svg">
<path d="M9.90316 0.000915527C5.28735 0.000915527 1.52466 3.76355 1.52466 8.37942V13.051C1.52466 13.4776 1.85976 13.8127 2.28633 13.8127H5.33305C5.75966 13.8127 6.09472 13.4776 6.09472 13.051V8.37942C6.09472 6.27717 7.80086 4.57102 9.90311 4.57102C12.0053 4.57102 13.7115 6.27717 13.7115 8.37942V9.90275C13.7115 10.3294 14.0466 10.6644 14.4732 10.6644H17.5199C17.9465 10.6644 18.2816 10.3293 18.2816 9.90275V8.37942C18.2817 3.76355 14.519 0.000915527 9.90316 0.000915527Z" fill="#C8C6CD" style="fill:#C8C6CD;fill:color(display-p3 0.7843 0.7765 0.8039);fill-opacity:1;"/>
<path d="M17.5186 12.2894H2.28505C1.0206 12.2894 0 13.31 0 14.5744V23.7146C0 24.979 1.0206 25.9996 2.28505 25.9996H17.5187C18.7831 25.9996 19.8037 24.979 19.8037 23.7146V14.5744C19.8037 13.31 18.7831 12.2894 17.5186 12.2894Z" fill="#C3C3C3" style="fill:#C3C3C3;fill:color(display-p3 0.7647 0.7647 0.7647);fill-opacity:1;"/>
<path d="M18.2808 8.37942V9.90275C18.2808 10.3294 17.9457 10.6644 17.5191 10.6644H14.4724C14.0458 10.6644 13.7107 10.3293 13.7107 9.90275V8.37942C13.7107 6.27717 12.0046 4.57102 9.90234 4.57102V0.000915527C14.5181 0.000915527 18.2808 3.76355 18.2808 8.37942Z" fill="#AEADB3" style="fill:#AEADB3;fill:color(display-p3 0.6824 0.6784 0.7020);fill-opacity:1;"/>
<path d="M19.8042 14.5744V23.7146C19.8042 24.979 18.7836 25.9996 17.5191 25.9996H9.90234V12.2894H17.5191C18.7836 12.2894 19.8042 13.31 19.8042 14.5744Z" fill="#C3C3C3" style="fill:#C3C3C3;fill:color(display-p3 0.7647 0.7647 0.7647);fill-opacity:1;"/>
<path d="M12.1884 17.6207C12.1884 18.6109 11.5487 19.4487 10.6651 19.7686V22.1908C10.6651 22.6936 10.2842 22.9525 9.90341 22.9525C9.5226 22.9525 9.14174 22.6935 9.14174 22.1908V19.7686C8.25815 19.4487 7.61841 18.6109 7.61841 17.6207C7.61841 16.3562 8.63901 15.3356 9.90346 15.3356C11.1679 15.3356 12.1884 16.3563 12.1884 17.6207Z" fill="#787780" style="fill:#787780;fill:color(display-p3 0.4706 0.4667 0.5020);fill-opacity:1;"/>
<path d="M12.1873 17.6207C12.1873 18.6109 11.5476 19.4487 10.664 19.7686V22.1908C10.664 22.6936 10.2832 22.9525 9.90234 22.9525V15.3356C11.1667 15.3356 12.1873 16.3563 12.1873 17.6207Z" fill="#57555C" style="fill:#57555C;fill:color(display-p3 0.3412 0.3333 0.3608);fill-opacity:1;"/>
</svg>
