<svg width="17" height="22" viewBox="0 0 17 22" fill="none" xmlns="http://www.w3.org/2000/svg">
<path fill-rule="evenodd" clip-rule="evenodd" d="M14.576 8.64205V5.98295C14.576 2.65909 11.9497 0 8.66687 0C5.38405 0 2.75778 2.65909 2.75778 5.98295V8.64205C1.64162 8.64205 0.788086 9.50625 0.788086 10.6364V19.2784C0.788086 20.342 1.64162 21.2727 2.75778 21.2727H14.576C15.6921 21.2727 16.5457 20.342 16.5457 19.2784V10.6364C16.5457 9.50625 15.6921 8.64205 14.576 8.64205ZM4.0708 5.98295C4.0708 3.39034 6.10615 1.32955 8.66676 1.32955C11.2274 1.32955 13.2627 3.39034 13.2627 5.98295V8.64205H4.0708V5.98295ZM9.32345 17.2841V15.8216C10.1113 15.5557 10.6366 14.8244 10.6366 13.9602C10.6366 12.8301 9.78305 11.9659 8.66689 11.9659C7.55073 11.9659 6.69719 12.8301 6.69719 13.9602C6.69719 14.8244 7.22244 15.5557 8.01032 15.8216V17.2841C8.01032 17.683 8.27295 17.9489 8.66689 17.9489C9.06083 17.9489 9.32345 17.683 9.32345 17.2841Z" fill="#D6D6D6" style="fill:#D6D6D6;fill:color(display-p3 0.8392 0.8392 0.8392);fill-opacity:1;"/>
</svg>
