<svg width="28" height="28" viewBox="0 0 28 28" fill="none" xmlns="http://www.w3.org/2000/svg">
<path d="M13.8539 3.08545C10.9112 3.08545 8.89848 5.46025 9.38238 8.36395L10.1146 12.7619C10.4053 14.5053 12.0879 15.93 13.8539 15.93C15.6208 15.93 17.3029 14.505 17.5929 12.7619L18.3257 8.36395C18.8102 5.46025 16.7974 3.08545 13.8539 3.08545Z" fill="white" style="fill:white;fill-opacity:1;"/>
<path d="M23.0343 17.9589L17.673 16.1719C16.6479 17.1356 15.2908 17.7479 13.8541 17.7479C12.4174 17.7479 11.0605 17.1356 10.0355 16.1719L4.67355 17.9589C3.72483 18.2751 2.94922 19.3523 2.94922 20.3517V24.8952H24.7589V20.3517C24.7589 19.3523 23.9831 18.2751 23.0343 17.9589Z" fill="white" style="fill:white;fill-opacity:1;"/>
<path d="M21.333 5.94702C22.2681 8.2046 22.2681 10.6895 21.333 12.9471L20.0737 12.4253C20.8698 10.505 20.8698 8.38916 20.0737 6.46882L21.333 5.94702Z" fill="white" style="fill:white;fill-opacity:1;"/>
<path d="M23.8515 4.90308C25.1069 7.93272 25.0151 11.1835 23.8515 13.9904L22.5923 13.4686C23.6667 10.8754 23.6667 8.01805 22.5923 5.42487L23.8515 4.90308Z" fill="white" style="fill:white;fill-opacity:1;"/>
<path d="M6.37486 12.9471C5.4395 10.6895 5.4395 8.2046 6.37486 5.94702L7.63492 6.46882C6.83805 8.38916 6.83805 10.505 7.63492 12.4253L6.37486 12.9471Z" fill="white" style="fill:white;fill-opacity:1;"/>
<path d="M3.85654 13.9904C2.60166 10.9607 2.69408 7.70999 3.85654 4.90308L5.11687 5.42487C4.04138 8.01805 4.04138 10.8754 5.11687 13.4686L3.85654 13.9904Z" fill="white" style="fill:white;fill-opacity:1;"/>
</svg>
