<svg width="21" height="21" viewBox="0 0 21 21" fill="none" xmlns="http://www.w3.org/2000/svg">
<path d="M18.8304 3.07537C18.4494 2.9963 18.0685 2.94599 17.6876 2.8813V2.49318C17.6874 2.21311 17.6277 1.93628 17.5125 1.68102C17.3973 1.42576 17.2291 1.19791 17.0191 1.01255C16.8049 0.82452 16.5531 0.684309 16.2804 0.60127C16.0078 0.518232 15.7205 0.494273 15.4379 0.530992C13.557 0.753937 11.8117 1.62274 10.5001 2.98912C9.18839 1.62274 7.44316 0.753937 5.56226 0.530992C5.2796 0.494273 4.99237 0.518232 4.71971 0.60127C4.44704 0.684309 4.19521 0.82452 3.98101 1.01255C3.77105 1.19791 3.60288 1.42576 3.48764 1.68102C3.37241 1.93628 3.31273 2.21311 3.31257 2.49318V2.8813C2.93163 2.94599 2.55069 2.9963 2.16976 3.07537C1.68139 3.17332 1.242 3.43733 0.926237 3.82254C0.61047 4.20775 0.437802 4.6904 0.437568 5.18849V17.3641C0.435133 17.6704 0.497975 17.9737 0.621907 18.2538C0.74584 18.5338 0.92802 18.7843 1.15632 18.9885C1.38764 19.1898 1.65924 19.3394 1.95298 19.4274C2.24673 19.5154 2.55586 19.5398 2.85976 19.4988C5.35189 19.1629 7.88847 19.5107 10.1982 20.5051C10.2869 20.5426 10.3822 20.562 10.4785 20.562C10.5748 20.562 10.6701 20.5426 10.7588 20.5051C13.0685 19.5107 15.6051 19.1629 18.0973 19.4988C18.4036 19.54 18.7152 19.5149 19.0109 19.4252C19.3067 19.3354 19.5797 19.1831 19.8115 18.9787C20.0432 18.7742 20.2283 18.5222 20.3542 18.24C20.4801 17.9577 20.5438 17.6516 20.541 17.3426V5.18849C20.5418 4.69342 20.3722 4.21315 20.0607 3.82836C19.7492 3.44356 19.3148 3.17768 18.8304 3.07537ZM15.6248 1.95412C15.7045 1.94359 15.7855 1.95033 15.8624 1.97389C15.9393 1.99746 16.0102 2.03729 16.0704 2.09068C16.127 2.14132 16.1723 2.20336 16.2032 2.27272C16.2342 2.34209 16.2502 2.41722 16.2501 2.49318V14.9347C16.2541 15.1009 16.2005 15.2633 16.0983 15.3944C15.9961 15.5254 15.8516 15.617 15.6894 15.6535C14.0095 15.9401 12.4531 16.7208 11.2188 17.896V4.3188C12.3406 3.00797 13.9123 2.16442 15.6248 1.95412ZM4.75007 2.49318C4.75193 2.34888 4.81008 2.21102 4.91212 2.10898C5.01416 2.00694 5.15202 1.94879 5.29632 1.94693H5.37538C7.08885 2.1591 8.66073 3.0053 9.78132 4.3188V17.896C8.54889 16.7156 6.99228 15.9298 5.31069 15.6391C5.14856 15.6026 5.00408 15.511 4.90187 15.38C4.79965 15.2489 4.74601 15.0865 4.75007 14.9204V2.49318ZM2.68726 18.0757C2.58533 18.089 2.48173 18.0804 2.38344 18.0503C2.28514 18.0202 2.19444 17.9694 2.11746 17.9013C2.04048 17.8332 1.97901 17.7493 1.9372 17.6554C1.89538 17.5615 1.8742 17.4597 1.87507 17.3569V5.18849C1.87168 5.02034 1.92736 4.85633 2.03242 4.725C2.13749 4.59367 2.28528 4.50334 2.45007 4.46974C2.73757 4.41224 3.02507 4.36912 3.31257 4.32599V14.9347C3.31243 15.4381 3.48842 15.9257 3.81004 16.313C4.13166 16.7002 4.57864 16.9628 5.07351 17.0551C6.13076 17.2407 7.13145 17.6661 7.99882 18.2985C6.25542 17.9106 4.45701 17.8351 2.68726 18.0757ZM19.1251 17.3569C19.1259 17.4597 19.1048 17.5615 19.0629 17.6554C19.0211 17.7493 18.9597 17.8332 18.8827 17.9013C18.8057 17.9694 18.715 18.0202 18.6167 18.0503C18.5184 18.0804 18.4148 18.089 18.3129 18.0757C16.5431 17.8351 14.7447 17.9106 13.0013 18.2985C13.8687 17.6661 14.8694 17.2407 15.9266 17.0551C16.4215 16.9628 16.8685 16.7002 17.1901 16.313C17.5117 15.9257 17.6877 15.4381 17.6876 14.9347V4.34037C17.9751 4.38349 18.2626 4.42662 18.5573 4.48412C18.7207 4.51918 18.8668 4.61014 18.9705 4.74133C19.0741 4.87251 19.1288 5.03572 19.1251 5.20287V17.3569Z" fill="black" style="fill:black;fill-opacity:1;"/>
</svg>
