<svg width="27" height="27" viewBox="0 0 27 27" fill="none" xmlns="http://www.w3.org/2000/svg">
<g clip-path="url(#clip0_148_2025)">
<path d="M24.0532 0.495361H14.0518V4.46992C14.2999 4.40639 14.557 4.37347 14.8172 4.37347C16.505 4.37347 17.8788 5.74658 17.8788 7.43514C17.8788 9.1237 16.505 10.4968 14.8172 10.4968C14.557 10.4968 14.2999 10.4639 14.0518 10.4004V12.7931H17.6949C18.3493 12.7931 18.6922 13.588 18.2675 14.0675C18.0134 14.3523 17.8788 14.7058 17.8788 15.0893C17.8788 15.9332 18.565 16.6201 19.4097 16.6201C20.2543 16.6201 20.9405 15.9332 20.9405 15.0893C20.9405 14.7058 20.8059 14.3523 20.5518 14.0675C20.1142 13.5744 20.4651 12.7931 21.1244 12.7931H26.3495V2.79161C26.3495 1.52541 25.3194 0.495361 24.0532 0.495361Z" fill="white" style="fill:white;fill-opacity:1;"/>
<path d="M14.8171 5.90431C14.4389 5.90431 14.0756 6.04183 13.7945 6.29227C13.3069 6.72953 12.5208 6.38346 12.5208 5.7204V0.495361H2.51939C1.25319 0.495361 0.223145 1.52541 0.223145 2.79161V12.7931H4.19841C4.13417 12.5449 4.10126 12.2878 4.10126 12.0276C4.10126 10.3391 5.47513 8.96597 7.16292 8.96597C8.85072 8.96597 10.2246 10.3391 10.2246 12.0276C10.2246 12.2878 10.1917 12.5449 10.1274 12.7931H12.5208V9.14988C12.5208 8.48677 13.3069 8.1408 13.7945 8.57806C14.0756 8.82845 14.4389 8.96597 14.8171 8.96597C15.6618 8.96597 16.3479 8.27904 16.3479 7.43514C16.3479 6.59124 15.6618 5.90431 14.8171 5.90431Z" fill="white" style="fill:white;fill-opacity:1;"/>
<path d="M11.7554 16.6202C12.0156 16.6202 12.2727 16.6531 12.5208 16.7173V14.3239H8.87766C8.21838 14.3239 7.86746 13.5425 8.30508 13.0494C8.5592 12.7647 8.69376 12.4111 8.69376 12.0277C8.69376 11.1838 8.00759 10.4968 7.16292 10.4968C6.31826 10.4968 5.63209 11.1838 5.63209 12.0277C5.63209 12.4111 5.76665 12.7647 6.02077 13.0494C6.45843 13.5425 6.10746 14.3239 5.44818 14.3239H0.223145V24.3254C0.223145 25.5916 1.25319 26.6216 2.51939 26.6216H12.5208V22.6463C12.2727 22.7106 12.0156 22.7435 11.7554 22.7435C10.0676 22.7435 8.69376 21.3704 8.69376 19.6818C8.69376 17.9933 10.0676 16.6202 11.7554 16.6202Z" fill="white" style="fill:white;fill-opacity:1;"/>
<path d="M22.3741 14.3237C22.4384 14.5719 22.4713 14.829 22.4713 15.0891C22.4713 16.7777 21.0974 18.1508 19.4096 18.1508C17.7218 18.1508 16.3479 16.7777 16.3479 15.0891C16.3479 14.8274 16.3926 14.5728 16.4568 14.3237H14.0517V17.9669C14.0517 18.6258 13.2709 18.9769 12.778 18.5395C12.491 18.2854 12.1382 18.1508 11.7554 18.1508C10.9108 18.1508 10.2246 18.8377 10.2246 19.6816C10.2246 20.5255 10.9108 21.2125 11.7554 21.2125C12.1382 21.2125 12.491 21.0779 12.778 20.8238C13.2719 20.3872 14.0517 20.7372 14.0517 21.3964V26.6214H24.0531C25.3193 26.6214 26.3494 25.5914 26.3494 24.3252V14.3237H22.3741Z" fill="white" style="fill:white;fill-opacity:1;"/>
</g>
<defs>
<clipPath id="clip0_148_2025">
<rect width="26.1262" height="26.1262" fill="white" style="fill:white;fill-opacity:1;" transform="translate(0.223145 0.495361)"/>
</clipPath>
</defs>
</svg>
