<svg width="32" height="31" viewBox="0 0 32 31" fill="none" xmlns="http://www.w3.org/2000/svg">
<g clip-path="url(#clip0_148_2011)">
<path d="M16.2865 10.4068C19.0986 10.4068 21.3782 8.12713 21.3782 5.31507C21.3782 2.50301 19.0986 0.223389 16.2865 0.223389C13.4744 0.223389 11.1948 2.50301 11.1948 5.31507C11.1948 8.12713 13.4744 10.4068 16.2865 10.4068Z" fill="white" style="fill:white;fill-opacity:1;"/>
<path d="M20.0284 11.0969C18.9504 11.797 17.6654 12.2042 16.287 12.2042C14.9086 12.2042 13.6236 11.797 12.5456 11.0969C11.3538 11.5524 10.2489 12.2243 9.28809 13.0866L16.287 15.7112L23.2859 13.0866C22.3251 12.2243 21.2202 11.5523 20.0284 11.0969Z" fill="white" style="fill:white;fill-opacity:1;"/>
<path d="M27.0688 18.7932H26.4698C25.9736 18.7932 25.5713 19.1955 25.5713 19.6917V22.0878C25.5713 22.5841 25.9736 22.9864 26.4698 22.9864H27.0688C28.2268 22.9864 29.1654 22.0477 29.1654 20.8898C29.1654 19.7319 28.2268 18.7932 27.0688 18.7932Z" fill="white" style="fill:white;fill-opacity:1;"/>
<path d="M6.19044 14.257C5.9482 14.4249 5.80371 14.7008 5.80371 14.9955V16.996H6.10322C7.58957 16.996 8.79882 18.2052 8.79882 19.6916V22.0877C8.79882 23.574 7.58957 24.7833 6.10322 24.7833H5.80371V26.6765C5.80371 27.051 6.03607 27.3863 6.38674 27.5178L15.3881 30.8933V17.2931L7.01775 14.1542C6.74178 14.0506 6.43262 14.089 6.19044 14.257Z" fill="white" style="fill:white;fill-opacity:1;"/>
<path d="M23.7743 22.0877V19.6916C23.7743 18.2052 24.9835 16.996 26.4699 16.996H26.7694V14.9955C26.7694 14.7008 26.6249 14.4249 26.3827 14.257C26.1404 14.089 25.8312 14.0506 25.5554 14.1542L17.1851 17.2931V30.8933L26.1864 27.5178C26.537 27.3863 26.7694 27.051 26.7694 26.6765V24.7833H26.4699C24.9835 24.7833 23.7743 23.574 23.7743 22.0877Z" fill="white" style="fill:white;fill-opacity:1;"/>
<path d="M7.00185 22.0878V19.6917C7.00185 19.1955 6.59954 18.7932 6.10331 18.7932H5.50429C4.34638 18.7932 3.40771 19.7319 3.40771 20.8898C3.40771 22.0477 4.34638 22.9864 5.50429 22.9864H6.10331C6.59954 22.9864 7.00185 22.5841 7.00185 22.0878Z" fill="white" style="fill:white;fill-opacity:1;"/>
</g>
<defs>
<clipPath id="clip0_148_2011">
<rect width="30.6699" height="30.6699" fill="white" style="fill:white;fill-opacity:1;" transform="translate(0.95166 0.223389)"/>
</clipPath>
</defs>
</svg>
