<svg width="16" height="16" viewBox="0 0 16 16" fill="none" xmlns="http://www.w3.org/2000/svg">
<path d="M14.75 3.83687H13.2156V2.34819C13.2156 1.51003 12.5337 0.828125 11.6956 0.828125L1.20375 0.828594C0.552067 0.828656 0.0219727 1.35887 0.0219727 2.01053V13.8919C0.0219727 14.5978 0.596254 15.172 1.30216 15.172H9.27607C9.98194 15.172 10.5563 14.5978 10.5563 13.8919V8.88288H14.2403C15.0154 8.88288 15.6462 8.25225 15.6462 7.47713V4.733C15.6462 4.23884 15.2441 3.83687 14.75 3.83687ZM10.1752 13.8919C10.1752 14.3876 9.77176 14.7909 9.27607 14.7909H1.30216C0.806473 14.7909 0.403066 14.3876 0.403066 13.8919V2.01053C0.403066 1.56903 0.762254 1.20975 1.20379 1.20969L10.6923 1.20925C10.3767 1.48759 10.1762 1.89347 10.1756 2.34622C10.1756 2.34691 10.1752 2.34753 10.1752 2.34822L10.1752 13.8919ZM10.5565 8.50178V2.34819C10.5565 1.72016 11.0676 1.20919 11.6956 1.20919C12.3236 1.20919 12.8345 1.72016 12.8345 2.34819V7.47709C12.8345 7.88125 13.007 8.24509 13.281 8.50175H10.5565V8.50178ZM15.2651 7.47713C15.2651 8.04213 14.8054 8.50178 14.2403 8.50178C13.6753 8.50178 13.2156 8.04209 13.2156 7.47713C13.2156 6.65191 13.2156 5.04503 13.2156 4.21794H14.75C15.0341 4.21794 15.2651 4.44897 15.2651 4.733V7.47713ZM8.26219 2.05316H2.3525C2.02054 2.05316 1.75038 2.32325 1.75038 2.65528V3.61572C1.75038 3.94775 2.02057 4.21794 2.3525 4.21794H8.26219C8.59416 4.21794 8.86432 3.94775 8.86432 3.61572V2.65531C8.86432 2.32328 8.59413 2.05316 8.26219 2.05316ZM8.48322 3.61572C8.48322 3.73762 8.3841 3.83684 8.26216 3.83684H2.3525C2.2306 3.83684 2.13144 3.73762 2.13144 3.61572V2.65531C2.13144 2.53341 2.23057 2.43425 2.3525 2.43425H8.26219C8.3841 2.43425 8.48325 2.53338 8.48325 2.65531L8.48322 3.61572ZM8.86432 5.74591C8.86432 5.85116 8.77904 5.93644 8.67379 5.93644H1.94091C1.83566 5.93644 1.75038 5.85116 1.75038 5.74591C1.75038 5.64066 1.83566 5.55538 1.94091 5.55538H8.67379C8.77904 5.55534 8.86432 5.64066 8.86432 5.74591ZM8.86432 7.46447C8.86432 7.56972 8.77904 7.655 8.67379 7.655H1.94091C1.83566 7.655 1.75038 7.56972 1.75038 7.46447C1.75038 7.35922 1.83566 7.27394 1.94091 7.27394H8.67379C8.77904 7.27394 8.86432 7.35922 8.86432 7.46447ZM8.86432 9.18297C8.86432 9.28822 8.77904 9.3735 8.67379 9.3735H1.94091C1.83566 9.3735 1.75038 9.28822 1.75038 9.18297C1.75038 9.07772 1.83566 8.99244 1.94091 8.99244H8.67379C8.77904 8.99244 8.86432 9.07772 8.86432 9.18297ZM8.86432 10.9015C8.86432 11.0068 8.77904 11.0921 8.67379 11.0921H1.94091C1.83566 11.0921 1.75038 11.0068 1.75038 10.9015C1.75038 10.7963 1.83566 10.711 1.94091 10.711H8.67379C8.77904 10.711 8.86432 10.7963 8.86432 10.9015ZM7.36488 12.6201C7.36488 12.7254 7.2796 12.8107 7.17435 12.8107H1.94091C1.83566 12.8107 1.75038 12.7254 1.75038 12.6201C1.75038 12.5149 1.83566 12.4296 1.94091 12.4296H7.17432C7.27957 12.4296 7.36488 12.5149 7.36488 12.6201Z" fill="#2A72AD" style="fill:#2A72AD;fill:color(display-p3 0.1647 0.4471 0.6784);fill-opacity:1;"/>
</svg>
