<svg width="16" height="16" viewBox="0 0 16 16" fill="none" xmlns="http://www.w3.org/2000/svg">
<g clip-path="url(#clip0_148_3575)">
<path d="M14.7774 11.7308L8.97277 1.63568C8.67105 1.11095 8.12954 0.797061 7.52429 0.79599C6.91903 0.794918 6.37641 1.10691 6.07284 1.63054L0.232551 11.705C-0.0710193 12.2287 -0.0721272 12.8545 0.229587 13.3793C0.531301 13.904 1.07278 14.2179 1.67807 14.219L13.323 14.2396C13.9282 14.2407 14.4709 13.9287 14.7744 13.405C15.078 12.8814 15.0791 12.2555 14.7774 11.7308ZM14.0135 12.9639C13.8694 13.2125 13.6119 13.3606 13.3245 13.3601L1.67963 13.3395C1.3923 13.339 1.13524 13.1899 0.992024 12.9409C0.848804 12.6918 0.84933 12.3946 0.993431 12.1461L6.83372 2.0716C6.97785 1.82303 7.23541 1.67493 7.52273 1.67544C7.81005 1.67595 8.06711 1.82496 8.21033 2.07404L14.015 12.1691C14.1582 12.4182 14.1576 12.7153 14.0135 12.9639Z" fill="#FF0000" style="fill:#FF0000;fill:color(display-p3 1.0000 0.0000 0.0000);fill-opacity:1;"/>
<path d="M7.50698 10.4184C7.18369 10.4178 6.92019 10.6804 6.91962 11.0037C6.91904 11.327 7.18161 11.5905 7.50491 11.5911C7.8282 11.5916 8.09171 11.3291 8.09228 11.0058C8.09285 10.6825 7.83028 10.419 7.50698 10.4184Z" fill="#FF0000" style="fill:#FF0000;fill:color(display-p3 1.0000 0.0000 0.0000);fill-opacity:1;"/>
<path d="M7.95639 4.99533L7.0769 4.99377L7.06886 9.5378L7.94834 9.53936L7.95639 4.99533Z" fill="#FF0000" style="fill:#FF0000;fill:color(display-p3 1.0000 0.0000 0.0000);fill-opacity:1;"/>
</g>
<defs>
<clipPath id="clip0_148_3575">
<rect width="14.9988" height="14.9988" fill="white" style="fill:white;fill-opacity:1;" transform="translate(0.0263672) rotate(0.101421)"/>
</clipPath>
</defs>
</svg>
