<svg width="164" height="22" viewBox="0 0 164 22" fill="none" xmlns="http://www.w3.org/2000/svg">
<path d="M0.589875 1.8H3.43788V2.12L2.68588 9.192H1.34188L0.589875 2.12V1.8ZM0.717875 11.72C0.717875 11.304 0.829875 10.9893 1.05388 10.776C1.27788 10.552 1.59788 10.44 2.01388 10.44C2.42988 10.44 2.74988 10.552 2.97388 10.776C3.19788 10.9893 3.30988 11.304 3.30988 11.72C3.30988 12.136 3.19788 12.456 2.97388 12.68C2.74988 12.8933 2.42988 13 2.01388 13C1.59788 13 1.27788 12.8933 1.05388 12.68C0.829875 12.456 0.717875 12.136 0.717875 11.72Z" fill="#2A72AD" style="fill:#2A72AD;fill:color(display-p3 0.1647 0.4471 0.6784);fill-opacity:1;"/>
<path d="M82.8319 13H82.5919C82.6345 13.2133 82.6559 13.4587 82.6559 13.736C82.6559 15.1013 82.1759 16.104 81.2159 16.744C80.2665 17.3947 78.7892 17.72 76.7839 17.72H75.8399C74.6452 17.72 73.5732 17.5333 72.6239 17.16C71.6745 16.7867 70.9225 16.2107 70.3679 15.432C69.8132 14.6533 69.5359 13.672 69.5359 12.488C69.5359 11.9653 69.5892 11.4373 69.6959 10.904C69.7812 10.4347 69.9412 10.0933 70.1759 9.88C70.4105 9.66667 70.7732 9.56 71.2639 9.56C71.5412 9.56 71.8719 9.592 72.2559 9.656C72.0212 10.5627 71.9039 11.3413 71.9039 11.992C71.9039 13.1013 72.2239 13.9387 72.8639 14.504C73.5039 15.08 74.4959 15.368 75.8399 15.368H76.7839C77.7225 15.368 78.4319 15.32 78.9119 15.224C79.4025 15.128 79.7439 14.9627 79.9359 14.728C80.1385 14.504 80.2399 14.1733 80.2399 13.736C80.2399 13.448 80.1545 13.208 79.9839 13.016C79.8239 12.824 79.5092 12.664 79.0399 12.536L78.2559 12.36C77.9892 12.2853 77.3972 12.1467 76.4799 11.944C76.4905 11.2613 76.6025 10.7653 76.8159 10.456C77.0399 10.1467 77.3705 9.992 77.8079 9.992C77.9679 9.992 78.1705 10.0187 78.4159 10.072C79.4612 10.296 80.2772 10.4453 80.8639 10.52C81.4505 10.584 82.1065 10.6213 82.8319 10.632V13ZM74.5919 21.368C74.2185 21.368 73.8985 21.2347 73.6319 20.968C73.3652 20.7013 73.2319 20.3813 73.2319 20.008C73.2319 19.6347 73.3652 19.3147 73.6319 19.048C73.8985 18.7813 74.2185 18.648 74.5919 18.648C74.9652 18.648 75.2852 18.7813 75.5519 19.048C75.8185 19.3147 75.9519 19.6347 75.9519 20.008C75.9519 20.3813 75.8185 20.7013 75.5519 20.968C75.2852 21.2347 74.9652 21.368 74.5919 21.368ZM77.7759 21.368C77.4025 21.368 77.0825 21.2347 76.8159 20.968C76.5492 20.7013 76.4159 20.3813 76.4159 20.008C76.4159 19.6347 76.5492 19.3147 76.8159 19.048C77.0825 18.7813 77.4025 18.648 77.7759 18.648C78.1492 18.648 78.4692 18.7813 78.7359 19.048C79.0025 19.3147 79.1359 19.6347 79.1359 20.008C79.1359 20.3813 79.0025 20.7013 78.7359 20.968C78.4692 21.2347 78.1492 21.368 77.7759 21.368ZM87.9961 4.216C88.9241 4.216 89.7188 4.424 90.3801 4.84C91.0415 5.256 91.5375 5.8 91.8681 6.472C92.1988 7.13333 92.3641 7.848 92.3641 8.616C92.3641 9.37333 92.1988 10.088 91.8681 10.76C91.5375 11.432 91.0415 11.976 90.3801 12.392C89.7188 12.7973 88.9241 13 87.9961 13H82.8281C82.4548 13 82.1508 12.8933 81.9161 12.68C81.6708 12.456 81.5481 12.1733 81.5481 11.832C81.5481 11.4693 81.6655 11.1813 81.9001 10.968C82.1348 10.744 82.4441 10.632 82.8281 10.632H84.0121C83.7348 10.0133 83.5961 9.35733 83.5961 8.664C83.5961 7.896 83.7615 7.176 84.0921 6.504C84.4335 5.82133 84.9348 5.272 85.5961 4.856C86.2681 4.42933 87.0681 4.216 87.9961 4.216ZM87.9961 10.632C88.6255 10.632 89.1108 10.4453 89.4521 10.072C89.7935 9.688 89.9641 9.22933 89.9641 8.696C89.9641 8.14133 89.7828 7.66133 89.4201 7.256C89.0681 6.84 88.5828 6.632 87.9641 6.632C87.3455 6.632 86.8601 6.83467 86.5081 7.24C86.1561 7.63467 85.9801 8.104 85.9801 8.648C85.9801 9.18133 86.1561 9.64533 86.5081 10.04C86.8708 10.4347 87.3668 10.632 87.9961 10.632ZM88.1721 3.112C87.7988 3.112 87.4788 2.97867 87.2121 2.712C86.9455 2.44533 86.8121 2.12533 86.8121 1.752C86.8121 1.37867 86.9455 1.05867 87.2121 0.792C87.4788 0.525333 87.7988 0.391999 88.1721 0.391999C88.5455 0.391999 88.8655 0.525333 89.1321 0.792C89.3988 1.05867 89.5321 1.37867 89.5321 1.752C89.5321 2.12533 89.3988 2.44533 89.1321 2.712C88.8655 2.97867 88.5455 3.112 88.1721 3.112ZM112.226 10.04C112.621 10.4347 113.271 10.632 114.178 10.632V13C112.482 13 111.335 12.5307 110.738 11.592C110.354 12.04 109.869 12.3867 109.282 12.632C108.706 12.8773 108.045 13 107.298 13H103.01C102.018 13 101.095 12.8293 100.242 12.488C99.3995 12.1467 98.7168 11.64 98.1941 10.968C97.6821 10.2853 97.4261 9.45867 97.4261 8.488C97.4261 8.14667 97.4688 7.76267 97.5541 7.336C97.6501 6.87733 97.8155 6.54133 98.0501 6.328C98.2848 6.11467 98.6475 6.008 99.1381 6.008C99.3515 6.008 99.6928 6.04533 100.162 6.12C99.9595 6.792 99.8581 7.37333 99.8581 7.864C99.8581 8.73867 100.125 9.42133 100.658 9.912C101.202 10.392 101.986 10.632 103.01 10.632H107.298C108.002 10.632 108.509 10.472 108.818 10.152C109.138 9.832 109.298 9.30933 109.298 8.584V2.696C109.298 2.17333 109.41 1.78933 109.634 1.544C109.858 1.288 110.237 1.16 110.77 1.16C111.026 1.16 111.341 1.192 111.714 1.256V8.584C111.714 9.192 111.885 9.67733 112.226 10.04ZM106.786 6.552H102.354V5.208H102.85C102.519 4.90933 102.354 4.49333 102.354 3.96C102.354 3.512 102.471 3.128 102.706 2.808C102.951 2.47733 103.266 2.22667 103.65 2.056C104.034 1.88533 104.45 1.8 104.898 1.8C105.25 1.8 105.559 1.84267 105.826 1.928C106.221 2.04533 106.418 2.26933 106.418 2.6C106.418 2.86667 106.295 3.17067 106.05 3.512C105.687 3.33067 105.33 3.24 104.978 3.24C104.658 3.24 104.402 3.32 104.21 3.48C104.018 3.64 103.922 3.86933 103.922 4.168C103.922 4.488 104.029 4.744 104.242 4.936C104.466 5.11733 104.749 5.208 105.09 5.208H106.786V6.552ZM116.172 6.76C116.172 6.23733 116.284 5.85333 116.508 5.608C116.732 5.352 117.111 5.224 117.644 5.224C117.911 5.224 118.225 5.256 118.588 5.32V13H114.172C113.809 13 113.505 12.8827 113.26 12.648C113.015 12.4133 112.892 12.1253 112.892 11.784C112.892 11.4427 113.009 11.1653 113.244 10.952C113.479 10.7387 113.788 10.632 114.172 10.632H116.172V6.76ZM116.636 17.144C116.263 17.144 115.943 17.0107 115.676 16.744C115.409 16.4773 115.276 16.1573 115.276 15.784C115.276 15.4107 115.409 15.0907 115.676 14.824C115.943 14.5573 116.263 14.424 116.636 14.424C117.009 14.424 117.329 14.5573 117.596 14.824C117.863 15.0907 117.996 15.4107 117.996 15.784C117.996 16.1573 117.863 16.4773 117.596 16.744C117.329 17.0107 117.009 17.144 116.636 17.144ZM127.889 10.632V13H123.489V2.696C123.489 2.17333 123.601 1.78933 123.825 1.544C124.049 1.288 124.427 1.16 124.961 1.16C125.227 1.16 125.542 1.192 125.905 1.256V10.632H127.889ZM131.155 17.128C130.781 17.128 130.461 16.9947 130.195 16.728C129.928 16.4613 129.795 16.1413 129.795 15.768C129.795 15.3947 129.928 15.0747 130.195 14.808C130.461 14.5413 130.781 14.408 131.155 14.408C131.528 14.408 131.848 14.5413 132.115 14.808C132.381 15.0747 132.515 15.3947 132.515 15.768C132.515 16.1413 132.381 16.4613 132.115 16.728C131.848 16.9947 131.528 17.128 131.155 17.128ZM132.819 10.04C133.213 10.4347 133.864 10.632 134.771 10.632V13C133.075 13 131.928 12.5307 131.331 11.592C130.947 12.04 130.461 12.3867 129.875 12.632C129.299 12.8773 128.637 13 127.891 13C127.528 13 127.224 12.8827 126.979 12.648C126.733 12.4133 126.611 12.1253 126.611 11.784C126.611 11.4427 126.728 11.1653 126.963 10.952C127.197 10.7387 127.507 10.632 127.891 10.632C128.477 10.632 128.957 10.4613 129.331 10.12C129.704 9.77867 129.891 9.26667 129.891 8.584V6.76C129.891 6.23733 130.003 5.85333 130.227 5.608C130.451 5.352 130.829 5.224 131.363 5.224C131.629 5.224 131.944 5.256 132.307 5.32V8.584C132.307 9.192 132.477 9.67733 132.819 10.04ZM144.158 9.912C144.2 10.1467 144.275 10.3173 144.382 10.424C144.488 10.52 144.616 10.5787 144.766 10.6C144.926 10.6213 145.171 10.632 145.502 10.632V13H134.782C134.355 13 134.024 12.8827 133.79 12.648C133.555 12.4133 133.438 12.136 133.438 11.816C133.438 11.496 133.555 11.2187 133.79 10.984C134.024 10.7493 134.355 10.632 134.782 10.632H141.822C141.811 10.5893 141.8 10.5413 141.79 10.488C141.779 10.4347 141.768 10.3707 141.758 10.296C141.619 9.48533 141.432 8.84533 141.198 8.376C140.974 7.896 140.68 7.528 140.318 7.272C139.582 6.76 138.664 6.504 137.566 6.504C136.968 6.504 136.371 6.58933 135.774 6.76C135.624 6.30133 135.55 5.896 135.55 5.544C135.55 5.14933 135.646 4.856 135.838 4.664C136.03 4.472 136.312 4.34933 136.686 4.296C137.112 4.24267 137.512 4.216 137.886 4.216C139.336 4.216 140.611 4.584 141.71 5.32C142.35 5.74667 142.867 6.33333 143.262 7.08C143.656 7.82667 143.955 8.77067 144.158 9.912ZM152.984 10.632V13H151.32C151.32 14.1413 151.064 15.0053 150.552 15.592C150.04 16.1787 149.309 16.472 148.36 16.472C147.73 16.472 147.058 16.3547 146.344 16.12L146.808 14.04C147.298 14.1573 147.682 14.216 147.96 14.216C148.29 14.216 148.53 14.1253 148.68 13.944C148.829 13.7627 148.904 13.448 148.904 13V6.76C148.904 6.23733 149.016 5.85333 149.24 5.608C149.464 5.352 149.842 5.224 150.376 5.224C150.642 5.224 150.957 5.256 151.32 5.32V10.632H152.984ZM158.808 4.216C159.63 4.216 160.366 4.41867 161.016 4.824C161.678 5.22933 162.195 5.784 162.568 6.488C162.952 7.18133 163.144 7.94933 163.144 8.792C163.144 9.66667 162.958 10.424 162.584 11.064C162.211 11.6933 161.715 12.1733 161.096 12.504C160.478 12.8347 159.8 13 159.064 13C158.488 13 157.918 12.8987 157.352 12.696C156.798 12.4933 156.28 12.1893 155.8 11.784C155.48 12.1787 155.075 12.4827 154.584 12.696C154.104 12.8987 153.571 13 152.984 13C152.622 13 152.318 12.8827 152.072 12.648C151.827 12.4133 151.704 12.1253 151.704 11.784C151.704 11.4427 151.822 11.1653 152.056 10.952C152.291 10.7387 152.6 10.632 152.984 10.632C153.326 10.632 153.587 10.5733 153.768 10.456C153.95 10.328 154.078 10.1573 154.152 9.944C154.238 9.73067 154.334 9.4 154.44 8.952C154.547 8.49333 154.622 8.19467 154.664 8.056C154.995 6.84 155.512 5.896 156.216 5.224C156.931 4.552 157.795 4.216 158.808 4.216ZM158.696 10.792C159.283 10.792 159.768 10.6213 160.152 10.28C160.536 9.928 160.728 9.432 160.728 8.792C160.728 8.17333 160.552 7.66133 160.2 7.256C159.848 6.84 159.384 6.632 158.808 6.632C158.371 6.632 158.014 6.78133 157.736 7.08C157.47 7.368 157.23 7.832 157.016 8.472C156.91 8.78133 156.83 9.10667 156.776 9.448C156.755 9.52267 156.734 9.61333 156.712 9.72C156.702 9.816 156.675 9.928 156.632 10.056C156.942 10.3013 157.278 10.488 157.64 10.616C158.003 10.7333 158.355 10.792 158.696 10.792Z" fill="#141F1F" style="fill:#141F1F;fill:color(display-p3 0.0784 0.1216 0.1216);fill-opacity:1;"/>
</svg>
