<svg width="45" height="45" viewBox="0 0 45 45" fill="none" xmlns="http://www.w3.org/2000/svg">
<g id="whatsapp-2">
<circle id="background" cx="22.5" cy="22.5" r="22.5" fill="#29A71A" style="fill:#29A71A;fill:color(display-p3 0.1608 0.6549 0.1020);fill-opacity:1;"/>
<g id="icon">
<path id="Shape" fill-rule="evenodd" clip-rule="evenodd" d="M13.8067 11.6302C19.4002 7.62264 27.1024 8.25422 31.9569 13.1185C36.7687 17.9488 37.3548 25.5228 33.3426 31.0253C29.3303 36.5277 21.8961 38.3454 15.7663 35.3226L8.69618 36.9852C8.47676 37.0374 8.24771 36.9491 8.12133 36.7637C8.03616 36.643 8.00548 36.4926 8.03665 36.3486L9.52252 29.1917C6.39511 23.0901 8.21313 15.6377 13.8067 11.6302ZM17.1213 32.611C21.3359 34.6918 26.4189 33.8721 29.7525 30.5742C34.0111 26.3486 34.0363 19.5059 29.8089 15.2495C29.7888 15.2322 29.77 15.2134 29.7525 15.1935C25.4704 10.9465 18.5291 10.9465 14.247 15.1935C10.8897 18.5247 10.0755 23.6215 12.2299 27.8194L12.7124 28.764L11.8142 33.0922L11.8014 33.1457L16.1358 32.1273L17.1213 32.611Z" fill="white" style="fill:white;fill-opacity:1;"/>
<path id="Path" d="M29.3674 27.3992C28.8362 28.2292 27.9971 29.2451 26.9423 29.4971C25.0946 29.9401 22.2589 29.5124 18.7302 26.2484L18.6866 26.2102C15.584 23.356 14.7782 20.9806 14.9732 19.0965C15.081 18.0272 15.9792 17.0597 16.7362 16.4282C16.9789 16.2227 17.3053 16.1433 17.6163 16.214C17.9274 16.2848 18.1863 16.4974 18.3145 16.7872L19.4565 19.3333C19.6077 19.6697 19.5593 20.0615 19.3307 20.3517L18.7533 21.0952C18.4999 21.4092 18.4643 21.8446 18.6635 22.195C18.9869 22.7577 19.7619 23.5852 20.6216 24.3516C21.5865 25.2172 22.6566 26.009 23.3341 26.2789C23.705 26.4292 24.1308 26.3405 24.4094 26.0549L25.0792 25.3852C25.3423 25.1278 25.7246 25.0306 26.08 25.1306L28.7926 25.8945C29.0958 25.9867 29.339 26.2129 29.4514 26.5072C29.5638 26.8014 29.5328 27.1307 29.3674 27.3992Z" fill="white" style="fill:white;fill-opacity:1;"/>
</g>
</g>
</svg>
